<?xml version="1.0" encoding="UTF-8"?>
<!DOCTYPE svg PUBLIC "-//W3C//DTD SVG 1.1//EN" "http://www.w3.org/Graphics/SVG/1.1/DTD/svg11.dtd">
<!-- Creator: CorelDRAW X7 -->
<svg xmlns="http://www.w3.org/2000/svg" xml:space="preserve" width="215.862mm" height="43.6119mm" version="1.1" style="shape-rendering:geometricPrecision; text-rendering:geometricPrecision; image-rendering:optimizeQuality; fill-rule:evenodd; clip-rule:evenodd"
viewBox="0 0 21590 4362"
 xmlns:xlink="http://www.w3.org/1999/xlink">
 <defs>
  <style type="text/css">
   <![CDATA[
    .fil0 {fill:black}
    .fil3 {fill:black}
    .fil1 {fill:#020202}
    .fil2 {fill:#030303}
   ]]>
  </style>
    <clipPath id="id0">
     <path d="M7075 75l2972 -62 -291 3653 -2971 63 290 -3654z"/>
    </clipPath>
    <clipPath id="id1">
     <path d="M10047 13l0 0 -1 0 -2971 62 -290 3654 2971 -63 291 -3653z"/>
    </clipPath>
    <clipPath id="id2">
     <path d="M7075 75l2972 -62 -291 3653 -2971 63 290 -3654z"/>
    </clipPath>
    <clipPath id="id3">
     <rect x="10911" y="217" width="2500" height="3353"/>
    </clipPath>
    <clipPath id="id4">
     <path d="M14541 3662l1269 134 386 -118 193 20 528 32 396 74 338 -193 0 0 210 -60 290 -46 180 -775 220 -1813 1246 -503 1784 0 0 3446 -7039 0 -1 -198z"/>
    </clipPath>
    <clipPath id="id5">
     <path d="M8064 3644l-1486 -34 -357 -21 -346 62 -604 -84 -455 51 -237 -3 -159 -49 0 148 -260 -83 -308 -34 -747 -89 -987 -140 238 -1581 -205 -296 -252 -1395 -1440 -96 -458 606 0 3391 8062 0 1 -353z"/>
    </clipPath>
    <clipPath id="id6">
     <path d="M4413 1846l2361 175 -124 1665 -2361 -176 124 -1664z"/>
    </clipPath>
    <clipPath id="id7">
     <path d="M6774 2022l0 -1 -2361 -175 0 0 -124 1664 2361 176 124 -1664z"/>
    </clipPath>
    <clipPath id="id8">
     <path d="M4413 1846l2361 175 -124 1665 -2361 -176 124 -1664z"/>
    </clipPath>
 </defs>
 <g id="Layer_x0020_1">
  <metadata id="CorelCorpID_0Corel-Layer"/>
  <g id="_2530759633584">
   <path class="fil0" d="M1 3251c2170,-111 4424,283 6509,286 2085,3 3149,-81 5136,29 3485,-121 6454,-136 9944,-78 0,120 0,461 -1,874l-21589 0c1,-497 1,-984 1,-1111z"/>
   <g style="clip-path:url(#id0)">
   </g>
   <g style="clip-path:url(#id1)">
    <image x="6785" y="13" width="3262" height="3716" xlink:href="Untitled-1_Images\Untitled-1_ImgID1.png"/>
   </g>
   <g style="clip-path:url(#id2)">
   </g>
   <g style="clip-path:url(#id3)">
    <image x="10911" y="217" width="2500" height="3353" xlink:href="Untitled-1_Images\Untitled-1_ImgID2.png"/>
   </g>
   <path class="fil0" d="M13869 3403c9,8 47,27 59,35 10,5 19,11 30,17 11,7 21,9 24,23 4,17 -51,82 -83,81 -10,-1 -10,-3 -17,-8 2,-30 43,-38 57,-61 -17,-13 -101,-17 -130,-68 -4,-7 -8,-15 -9,-22 -2,-11 -1,-20 -3,-29 -6,-1 -59,16 -64,32 -1,2 3,48 1,67 0,8 0,17 -1,25 21,31 -13,41 -35,46 -16,4 -68,16 -81,4 -1,-24 70,-20 85,-40 3,-8 -24,-67 -28,-95l-1 -33c4,-18 11,-15 16,-24 -13,-7 -32,-4 -45,1 0,13 10,22 12,36 6,37 -23,96 -37,140 -7,19 -21,21 -40,20l-18 -1c-26,-3 -18,-21 -14,-25 11,-9 31,-3 44,-2 18,-24 8,-37 9,-63 1,-14 1,-54 -10,-62 -10,-3 -19,25 -34,46 -12,18 -64,72 -82,80 -17,7 -51,8 -64,-6 13,-28 54,-6 67,-30 25,-46 15,-25 40,-60 21,-30 3,-42 -4,-74 -3,-12 -2,-37 -4,-43 -5,-14 -23,1 -34,2 -23,2 -58,-16 -57,-42 0,-16 9,-22 16,-34 10,-17 2,-46 56,-43 47,2 10,55 107,30 69,-18 67,-32 156,-36 30,-1 55,8 82,20 31,13 39,25 74,11 54,-23 58,-92 32,-137 -29,-50 -74,-57 -121,-82 -39,-21 -85,-55 -100,-99 -23,-71 25,-147 83,-148l8 0c15,3 13,18 -3,24 -57,23 -77,82 -51,129 35,64 126,72 189,114 44,30 68,78 65,131 -3,51 -30,104 -82,120 -15,5 -31,2 -41,5 -14,4 -7,29 -7,40 0,16 -2,31 -5,47 -3,19 -10,20 -7,41z"/>
   <path class="fil1" d="M17795 2817c-21,-18 -63,-26 -92,-33 -4,25 -7,45 9,75 8,15 7,10 13,17 40,-11 18,-20 36,-33 12,-8 18,10 34,-26zm-11 -32c-2,-21 -6,-29 -15,-50 -13,-32 -11,-27 -29,-41 -8,42 -21,44 -29,74 16,13 52,18 73,17zm-22 101c41,-5 41,-52 88,-56 -1,73 -19,55 -48,92 16,43 38,51 47,141 2,26 6,135 -15,167 -12,18 -30,32 -40,52 -21,38 -42,136 -48,182l-11 40c-11,-12 -11,-11 -9,-50 2,-36 12,-139 5,-155l-26 1c1,40 8,70 10,104l-2 84c-6,20 8,8 -14,16 -33,-16 0,-19 -16,-98 -7,-29 -21,-64 -29,-93 -123,-6 -117,-47 -184,31 -62,71 -71,42 -19,171 -42,6 -43,-18 -59,-54 -15,-32 -33,-55 -36,-89 14,-8 25,-15 37,-27 7,-8 10,-8 14,-20 16,-51 -39,-3 -57,15 -24,23 -31,28 -57,48 -49,38 -53,62 -81,128l-33 0c3,-27 49,-152 72,-169 78,-57 57,-71 59,-184 2,-117 200,-99 284,-94 55,4 70,-10 109,-20l-5 -46c-31,-5 -82,15 -78,-27 3,-22 33,-26 49,-59 -28,-16 -39,-23 -49,-54 -1,-1 -1,-3 -1,-4 -41,-11 -72,-18 -74,-68 35,28 6,34 64,46 -18,-45 -49,-70 -28,-130 16,22 6,17 11,47 6,32 51,119 82,84 36,-77 -49,-109 -23,-160 19,25 8,50 44,72 37,-31 32,-110 73,-57 15,21 33,82 37,106 50,-12 73,-74 35,-123 -15,-18 -22,-17 -28,-36 36,5 35,17 50,41 15,-28 -5,-21 7,-47 33,35 14,118 -10,154 -24,36 -89,70 -97,98z"/>
   <path class="fil1" d="M17077 2961c17,40 32,37 95,82 18,13 23,12 25,36 -23,10 -44,9 -73,13 -14,42 -6,74 -32,108 -16,22 -16,22 -29,42 -17,27 -14,17 -38,39 7,39 36,33 48,100 6,35 21,94 -3,126 -42,-80 39,-119 -87,-189 -19,27 -34,118 -29,155 4,31 14,36 4,53 -19,-9 -22,-10 -26,-38l0 -191c-84,-10 -92,-10 -163,-33 -21,33 -70,63 -83,100 -20,53 13,114 19,161 -44,-8 -37,-48 -43,-86l-14 67c-51,-18 -14,-189 -9,-195 1,-2 32,-32 38,-39 -11,-34 -51,-71 -39,-108 9,-27 59,-54 101,-59 136,-14 340,94 306,-72 -8,-37 -28,-23 -32,-75 71,29 8,5 64,3z"/>
   <path class="fil2" d="M16549 3225c-28,21 -11,-4 -26,22 -11,17 -6,28 -34,64 -2,2 -9,10 -10,11 -52,56 -27,166 -12,191 -49,0 -30,-24 -36,-73 -3,-25 -14,-71 -22,-98 -30,-3 -37,-12 -58,10 -41,43 -42,90 -38,146 3,37 1,26 -5,34 -53,-28 1,-181 -11,-216 -9,-26 -22,-18 -20,-64 81,-71 102,1 194,-20l15 -34c-19,-21 -29,-7 -38,-48 100,30 65,10 124,-10 -12,60 -37,20 -23,85z"/>
   <path class="fil2" d="M16128 3520c-40,0 -23,-32 -32,-79 -10,-57 0,-65 -52,-66 -40,44 -51,63 -46,119 5,51 8,37 -8,43 -15,-22 -14,-95 -9,-125 5,-26 13,-32 3,-62 -6,-17 -16,-19 -15,-48 27,-32 49,-32 90,-23 51,10 62,21 87,-19 -12,-30 -23,-9 -33,-48 85,34 67,5 107,-7 -8,25 -13,24 -18,38l-11 37c0,1 -2,3 -2,4l-9 12c-11,18 -11,29 -32,54 -27,33 -32,21 -31,72 1,38 -1,68 11,98z"/>
   <path class="fil3" d="M4075 3421c-3,-7 1,-43 1,-54 1,-17 -1,-35 -1,-52 -1,-29 1,-85 8,-113 16,52 -2,160 -6,219 0,0 0,-1 0,-1l2 -4c0,-2 1,-6 1,-8l8 -77c1,-12 0,-18 2,-31 0,-7 0,-8 0,-13l0 -45c0,-10 -1,-16 -2,-26 0,-7 -1,-20 -6,-24 -5,50 -12,93 -9,143 2,28 1,57 -2,86l4 0z"/>
   <path class="fil3" d="M4007 3341c10,-8 7,-24 8,-36 3,2 4,3 7,4 5,-3 6,-4 11,-10l1 3 1 10c1,29 0,36 -15,38l-11 2c0,0 1,0 1,0 0,3 12,0 18,1 -1,20 -11,50 -10,68l3 -5c1,-2 1,-4 1,-6l8 -42c1,-11 8,-40 6,-53 -1,-4 2,0 -1,-3 0,-2 1,-3 1,-6 0,-4 1,-2 -2,-4l2 -9c-4,1 -3,1 -7,5 -2,3 -4,4 -6,7 -7,-3 -1,-2 -9,-4 0,7 0,20 -1,23 -1,8 -8,12 -6,17z"/>
   <path class="fil3" d="M4108 3306c-3,9 -3,43 -5,59 -2,22 -2,39 -4,60 1,3 -1,1 1,0 0,-17 3,-44 5,-61 1,-18 3,-40 3,-58 -1,-24 -5,-41 -8,-62 22,12 20,56 20,80 -1,31 -5,72 -12,102 4,-4 2,-3 4,-11 1,-5 2,-8 2,-13l7 -82c2,-17 0,-64 -14,-76 -4,-3 -5,-4 -11,-5 3,9 5,22 7,32 0,7 1,10 2,17l1 14c1,5 -1,2 2,4z"/>
   <path class="fil3" d="M4156 3337c2,-37 27,-192 50,-206l-9 39c4,-1 1,2 4,-9 2,-11 6,-22 7,-35 -7,1 -11,10 -14,17 -7,16 -7,22 -11,37l-13 55c-3,13 -18,87 -16,98 1,5 -1,0 2,4z"/>
   <path class="fil3" d="M3873 3503c4,-2 1,1 3,-5l10 -68c1,-9 0,-14 1,-25l-7 18c0,1 0,1 0,2l-3 6c1,-10 3,-21 3,-31l1 -22c0,-1 0,-3 0,-4 -1,-5 2,0 -1,-3l-6 80 9 -32c0,27 -6,57 -10,84z"/>
   <path class="fil3" d="M3985 3343l4 -15c1,2 1,0 2,4 4,15 3,73 2,87l-14 -2c1,1 -1,0 2,1l13 2c5,-42 -2,-102 -2,-104l-1 0c-1,5 -5,14 -6,27z"/>
   <path class="fil3" d="M3734 3454l0 -45c13,21 7,83 5,87 -5,-1 -1,2 -4,-4l-1 6 8 1 4 -32c4,-15 -1,-53 1,-73 -4,5 -3,6 -4,13 1,-1 0,-50 1,-59 2,-22 4,-44 7,-67l4 19c2,-6 -1,-12 0,-19 0,-15 8,-59 6,-63 2,9 3,57 0,69 0,2 -2,14 -5,15 0,0 0,0 0,0 0,0 -1,0 -1,0 0,0 -1,-1 -1,-1 2,13 -8,78 -11,95 5,-5 4,-2 5,-19 1,-17 3,-31 6,-49l3 -7c0,0 0,0 0,-1l2 0c17,12 9,14 16,20 1,-8 -4,-10 -5,-18 0,-7 2,-14 0,-20l-2 19c-4,-4 -5,-4 -10,-7 1,-10 4,-17 6,-26 3,-10 4,-19 5,-29 2,-20 3,-44 6,-63 8,28 -11,85 -5,106 2,-15 14,-92 30,-100 -3,14 -8,30 -9,43 -1,8 1,11 -3,20 -9,28 0,74 -6,112 -3,-6 -3,-13 -3,-19 -1,-4 -2,-15 -4,-18 -1,5 1,10 2,16 0,6 1,12 1,16 0,10 -2,28 1,35 4,-16 -2,-16 10,-26 1,9 1,18 0,27 0,13 1,19 -11,22 1,-7 3,-18 1,-23l-11 95 1 0c6,-26 6,-50 8,-63 1,-7 -1,-5 5,-5 3,8 -8,53 -10,67 4,-3 1,3 5,-6l11 -57c2,-15 3,-20 3,-34l0 -24c0,-7 2,-3 -2,-7l-5 8c4,-39 0,-73 2,-94 1,-9 3,-15 5,-22 2,-9 1,-18 2,-24 2,-13 9,-30 10,-45 -7,3 -6,3 -10,10 -3,6 -5,10 -8,16 -3,10 -8,24 -9,37l-2 0c3,-27 6,-33 4,-64 -1,-11 1,-14 -4,-18 -1,16 -1,29 -3,47 -2,16 -4,33 -5,49l-2 0c0,-4 1,-6 1,-10 0,-1 -1,-4 -1,-4 0,-2 1,-3 1,-5l-2 -36c0,-7 1,-13 -2,-17l-7 72c-5,1 0,-3 -4,-2 -3,25 -7,51 -9,76l-1 53c1,4 2,12 1,16 0,0 0,-1 0,-1l-6 -16c-2,-3 -1,-1 -2,-3 0,6 -3,47 -1,54 2,6 -2,-1 2,4zm23 47c2,1 0,0 3,0 1,0 3,0 5,0 -8,-4 -4,2 -5,-5 2,-28 4,-58 5,-86 1,-16 3,-58 -3,-75 0,0 -1,-1 -1,-1 0,0 0,-1 0,-1 -1,10 2,21 2,31l-1 33c0,25 -7,48 -8,72 3,-16 5,-20 7,-38 0,-2 1,-5 1,-7l-5 77zm-13 -2c2,3 0,3 2,0 3,-8 1,-29 1,-30l-1 -2c-3,10 -1,22 -2,32z"/>
   <path class="fil3" d="M3333 3135c2,14 1,31 1,44 -1,16 0,30 1,45 2,18 2,37 1,55 0,12 -7,53 -4,59 4,-60 14,-141 13,-199l-5 -58c8,8 14,23 15,39l1 55c-2,48 -3,63 -9,111l-7 55c-1,17 -1,35 -2,52 0,-5 3,-26 4,-34 0,-13 -1,-23 2,-36 10,-54 8,-127 27,-177 4,-12 6,-17 14,-24l-2 5c-1,9 -4,19 -6,28 -3,12 0,18 -4,30 -7,21 -4,36 -5,57 2,29 -17,67 -16,91 3,-9 5,-23 7,-30 8,-31 12,-52 23,-85l2 -7c-3,15 -5,36 -8,53 -3,18 -7,35 -10,53 -4,23 -23,84 -22,101l1 3 43 -221c1,-3 1,-4 0,-7 -2,6 -5,11 -4,18 -4,1 -1,-2 -2,2 -1,5 -1,1 0,5 -4,2 -2,-1 -6,13 -2,6 -3,8 -4,15l-2 -3c0,0 -1,0 -1,0 0,0 -1,0 -1,-1 3,-8 3,-20 2,-29 0,-15 8,-31 8,-41 0,-27 8,-32 5,-45 6,0 2,1 3,-3 1,-1 1,-6 1,-8 -10,5 -14,18 -18,28 -3,9 -8,25 -9,37l-2 0c2,-12 2,-5 -2,-6 3,-8 4,-39 2,-49 -1,-6 1,-4 -3,-6 3,-8 -1,-44 -19,-46 2,7 4,28 5,38 3,36 2,86 -2,125l-1 -1c1,-15 -2,-11 -3,-12 3,-9 1,-15 1,-23l0 -46c0,-5 0,-7 0,-10 0,-3 0,-2 0,-5 -2,-5 0,-3 -3,-5 3,-8 -2,-32 -6,-37l0 24c1,9 -1,4 3,7 -3,6 -2,6 -2,13 0,0 0,5 0,5 1,6 -2,3 3,5 -2,4 -2,2 -3,7 0,10 -1,3 3,5 -4,9 -12,121 -11,136 0,20 2,41 6,59 1,10 3,18 3,29 1,8 -2,26 2,32 5,-17 -1,-45 -3,-62 -3,-22 -5,-39 -6,-61 0,-50 7,-75 8,-101 0,-11 0,-22 1,-32l0 -12 -1 -23 -1 -16 4 22z"/>
   <path class="fil3" d="M3671 3148c-7,-1 0,-2 -2,2 -3,5 -8,71 -9,79 -4,-4 -2,-10 -5,-21 -2,-7 -3,-14 -10,-17 -1,5 0,15 0,20l0 15c2,6 -1,1 3,5l-1 -26c0,-6 0,-6 2,-8 2,13 9,27 7,44 -1,16 -3,36 -5,52 -4,35 -15,71 -11,105 3,-21 2,-41 6,-63 3,-20 7,-39 9,-60 2,-23 5,-41 9,-63 4,-21 2,-41 7,-64 1,-3 1,-6 2,-9l4 -9c-3,25 -8,52 -9,77 -1,24 2,46 0,70 -5,51 -8,77 -22,127 3,-10 9,-28 10,-36 2,34 -19,112 -20,131 2,-2 1,-1 3,-4 3,-7 10,-55 10,-62l18 3c0,13 -25,50 -26,64 7,-4 17,-32 20,-39 4,-7 7,-13 10,-20 3,-7 8,-14 7,-22 4,0 1,4 4,-5 2,-4 1,-6 1,-10 4,-1 1,0 3,-4 0,-1 0,-5 0,-7l-3 11 -5 15c-2,6 -4,11 -8,12 -5,1 -15,-1 -20,-2 0,-3 0,-4 1,-7 1,-2 0,0 2,-3 1,-1 0,1 3,-2 2,-2 4,-7 7,-11l4 -17c3,1 3,6 10,3 2,-1 8,-5 10,-6l-2 7c4,-1 3,3 4,-13l-14 9c-4,-4 -1,-4 -8,-6 -2,7 -6,14 -4,23 -8,2 -2,4 -10,8 3,-23 5,-48 9,-69l8 -60c1,-12 1,-7 -2,-8 8,-19 1,-60 2,-80 3,-32 8,-58 11,-86 -5,3 -3,2 -7,16 -2,7 -4,12 -3,21z"/>
   <path class="fil3" d="M3616 3309c3,6 -2,43 -2,52 -1,0 -1,-1 -1,-1 0,-1 0,-1 0,-2l-3 -14c-2,3 1,26 1,34 2,28 -5,93 -11,118l-1 -1c1,3 0,3 1,1 6,2 3,1 5,0 4,-26 10,-54 20,-80 2,13 0,45 -2,61 -1,10 -3,15 2,20 1,-14 3,-98 1,-105 -2,20 -6,27 -11,45 -4,16 -5,30 -10,44 1,-16 4,-47 8,-62 2,-10 11,-53 11,-59 0,0 -1,0 -2,3l-7 33c-2,-33 7,-139 13,-172l2 49c0,0 0,1 0,1 1,-14 0,-29 -1,-43l0 -9c0,-16 2,-12 -2,-15l-11 102zm30 -78c-1,10 -4,15 -4,26 0,9 2,12 1,24 -2,11 -7,34 -12,45 0,0 -1,0 -1,0l1 -45c-1,-6 1,-3 -3,-6l-1 63c-1,8 -4,15 -3,22 3,-4 2,-10 6,-17 -2,12 -7,38 -4,48 3,-28 6,-53 13,-80 13,-48 2,-37 8,-68 1,-8 0,-9 0,-9l-1 -3zm-36 107c-2,2 -4,7 -1,4l1 -4zm-1 -4c-4,3 -5,6 0,3l0 -3zm-2 -9c-5,-6 -9,-14 -19,-16 3,8 0,6 5,8 -3,8 0,14 1,22 1,8 2,15 3,22 2,26 0,31 0,42 0,7 -1,2 2,6 0,-18 2,-32 0,-49 -1,-16 -4,-29 -6,-43l0 -2c3,3 5,4 8,9 7,12 2,11 7,9l-1 -8z"/>
   <path class="fil3" d="M3881 3323c0,-2 1,-7 1,-10 0,-5 0,-4 -2,-7 -2,16 -4,27 -6,43l-2 0c2,-16 -1,-34 -3,-50 -1,-6 -1,-11 -4,-15l-7 59 -5 -25c-1,-4 -2,-8 -3,-12l-3 -8c-1,-3 0,-1 -1,-3 -3,25 -1,46 -2,69 -2,-2 -2,-3 -5,-5 -2,-2 -4,-3 -5,-5 -1,10 8,43 3,59 -1,5 -5,10 -7,17 -6,30 -6,44 8,67 2,5 0,4 5,7 0,-13 -6,-7 -11,-30 -4,-13 -2,-26 1,-40 7,-29 14,-8 4,-72 12,10 2,16 7,31l3 15c0,1 0,1 0,2l1 2c1,-5 0,-7 0,-12 -4,-24 -2,-68 -1,-91 9,16 10,49 9,68 -2,30 -2,29 0,56 1,19 1,11 -2,19l7 4 -2 17c-1,4 0,2 -2,4 -3,-2 -3,3 -3,-14l-2 -18c0,-8 -1,-28 -4,-33l8 90c1,-6 -1,-16 -1,-18 1,-5 -1,-3 3,-3 3,8 -7,40 1,43 -4,-6 0,-14 1,-23 2,-26 2,-46 6,-77 3,-28 7,-76 15,-101zm-38 194l-1 7 15 2c-5,-4 -5,-2 -12,-2 -1,-2 -1,-2 -2,-4 0,0 0,-2 0,-3zm23 -221c0,0 -2,-5 0,6 1,3 1,5 2,8 1,6 1,12 2,18 1,14 1,27 0,40l-8 80c-3,9 3,-6 -1,3l-2 2c2,-24 -3,-51 -1,-76 0,-14 4,-73 8,-81z"/>
   <path class="fil3" d="M3487 3485l7 1 8 -92c4,-49 -1,-52 0,-86 5,5 3,8 7,11 6,-45 2,-58 4,-94 7,22 2,80 -1,106l-3 -12c-1,6 1,14 1,21l-1 60c-1,11 -8,82 -12,85l4 3c7,-22 9,-118 11,-146 1,-23 8,-49 11,-73 2,-13 0,-23 2,-36 2,-11 4,-26 1,-35l-1 18c1,9 -7,58 -4,72 -7,-7 0,-19 -3,-40 0,-2 0,-4 0,-5 0,-1 0,-2 -1,-3 0,-6 -1,-19 -3,-26 -2,-3 -2,-2 -3,-3l0 24c0,0 0,1 0,1l0 7c-1,13 0,41 -2,57l-3 -16c0,-5 0,-10 -1,-15 -1,-8 -1,-25 -6,-29l-1 28c0,0 0,4 0,5 1,5 -2,1 2,4l2 -20 3 47c-5,3 6,1 -2,0l-3 0c0,-1 0,0 -1,0 3,17 6,41 -2,59 0,-9 0,-15 0,-24 -3,7 1,17 -3,22 -3,-5 -2,-22 -3,-29 0,-17 -3,-11 6,-24l-1 31c1,-8 4,-56 2,-61 -2,22 1,14 -6,32 -4,-3 -3,-1 -4,-17 0,-4 0,-8 0,-10 0,-6 0,-5 -2,-9l-7 199c0,9 -1,8 3,10 0,1 -6,8 2,1 -5,-2 2,-38 3,-45 2,-8 3,-16 4,-24 3,-18 6,-17 1,-25 -3,27 -6,53 -10,80 -4,-20 1,-161 5,-176 -1,7 3,35 3,47l3 50c0,-3 1,-5 1,-8 0,-2 0,-3 -1,-4 0,-1 0,-1 0,-2 0,-11 -2,-8 1,-10 4,-3 -3,16 1,26l5 -32c4,13 -5,100 -7,122 -1,1 0,0 -3,1 0,0 -3,1 -3,1z"/>
   <path class="fil3" d="M3531 3251c1,20 -2,40 -1,60 0,16 -2,42 -4,60 -3,18 -13,109 -18,118l1 0c6,-11 17,-114 19,-134 3,-25 0,-40 7,-65 4,-15 10,-45 22,-50 -2,9 -5,16 -7,26 -2,11 1,15 -4,26 -3,10 -3,18 -3,29 0,5 0,9 0,13 0,10 -2,7 -2,14 4,-4 9,-29 26,-33 -4,10 -8,19 -12,30 -5,13 -6,23 -10,35l-8 47c3,-1 3,2 4,-10 2,-16 6,-28 4,-37 7,0 0,2 3,-2l10 -34c2,-5 4,-11 6,-17 3,-5 7,-13 8,-17 -18,-2 -21,18 -28,22 1,-10 0,-16 1,-26 2,-10 6,-14 6,-25 1,-15 -2,-2 4,-23 2,-8 5,-17 6,-24 -7,2 -7,3 -11,9 -10,15 -11,25 -15,39 -2,5 -1,5 -5,7 3,-7 2,-13 2,-21 0,0 0,0 0,-1 0,0 0,-1 0,-1 0,-10 3,-11 -1,-15zm-12 239l5 0c-4,-4 -2,1 -3,-7l3 -28c2,-29 4,-45 9,-74 2,-10 8,-24 8,-33 0,0 0,-1 -2,3 0,1 -1,3 -1,3 -1,3 -2,6 -2,9 -2,5 -3,11 -4,16 -6,28 -12,85 -13,111z"/>
   <path class="fil3" d="M4133 3403c-2,4 -2,0 -1,5 0,4 -1,0 1,3l0 -8c-2,-46 -2,-89 7,-134 4,-22 11,-44 14,-65 2,-21 3,-53 7,-71 0,27 1,40 -4,68 -4,24 -1,47 -5,71 -3,24 -4,43 -5,68 -1,25 -6,46 -9,70 3,-3 4,-10 5,-16l6 -74c1,-7 2,-14 3,-20l4 -38c1,-9 0,-12 0,-18 1,-18 2,-42 6,-59 3,-11 2,-27 2,-36 0,-8 0,-12 -1,-19 -1,-13 0,-12 -3,-15 -1,8 0,10 -1,17 -4,53 -8,79 -20,128 -2,6 -2,13 -3,19 -2,16 -7,37 -7,56 0,11 1,23 1,34l1 30c1,5 -2,1 2,4z"/>
   <path class="fil3" d="M4045 3344l9 -106c3,4 2,12 2,20 0,6 1,14 1,21l-3 79c4,-2 3,-15 4,-20l1 -56c-1,-5 2,-1 -2,-3 5,-14 -1,-46 1,-65l-2 2c-4,8 -11,87 -11,95 1,9 -2,18 -2,26 -1,10 -1,4 2,7z"/>
   <path class="fil3" d="M3860 3526l9 -1c4,-7 4,-12 5,-21 -1,1 -1,1 -1,2l-2 4c0,1 -1,3 -1,5 0,4 -1,8 -2,11 0,0 -4,-1 -4,-1 -4,0 -2,0 -4,1z"/>
   <path class="fil3" d="M3607 3325l1 8 1 1 0 3 1 1 -1 4 1 2 3 14c0,1 0,1 0,2 0,0 0,1 1,1 0,-9 5,-46 2,-52 -2,1 -1,-1 -3,2 -2,2 -2,2 -2,4 -2,3 -2,7 -4,10z"/>
   <path class="fil3" d="M4067 3416c-3,-7 1,-43 1,-54 1,-17 -1,-35 -1,-52 -1,-29 1,-85 8,-112 16,51 -2,159 -6,218 0,0 0,-1 0,-1l2 -4c0,-2 1,-6 1,-8l8 -77c1,-12 0,-18 2,-31 1,-7 0,-8 0,-13l0 -44c0,-11 -1,-17 -2,-27 0,-7 -1,-20 -6,-24 -5,50 -12,93 -9,143 2,28 1,57 -2,86l4 0z"/>
   <path class="fil3" d="M3999 3336c10,-8 7,-23 8,-35 3,1 4,2 8,3 4,-3 5,-4 10,-10l1 3 1 10c1,29 0,36 -15,38l-11 2c0,0 1,0 1,1 0,2 12,-1 18,0 -1,20 -11,50 -10,68l3 -5c1,-2 1,-4 1,-6l8 -42c1,-11 9,-40 6,-52 -1,-5 2,0 -1,-4 0,-2 1,-3 1,-6 0,-4 1,-1 -2,-4l2 -9c-4,1 -3,1 -6,5 -3,3 -5,4 -7,7 -7,-2 -1,-2 -8,-4 -1,7 -1,20 -2,23 -1,8 -8,13 -6,17z"/>
   <path class="fil3" d="M4100 3301c-3,9 -3,43 -5,59 -2,22 -2,39 -4,60 1,3 -1,1 1,0 0,-16 3,-43 5,-61 1,-18 3,-40 3,-58 -1,-24 -5,-40 -8,-62 22,12 20,57 20,80 -1,31 -5,72 -12,102 4,-4 2,-3 4,-11 1,-5 2,-7 2,-13l8 -82c1,-17 -1,-64 -15,-76 -4,-3 -5,-4 -11,-5 3,9 5,22 7,32 0,7 1,11 2,17l1 14c1,5 -1,2 2,4z"/>
   <path class="fil3" d="M4148 3332c2,-37 27,-192 50,-206l-9 39c4,-1 1,2 4,-9 2,-11 6,-22 7,-35 -7,1 -11,10 -14,17 -7,16 -7,22 -11,37l-13 55c-3,14 -18,87 -16,99 1,4 -1,0 2,3z"/>
   <path class="fil3" d="M3865 3498c4,-2 1,2 3,-4l10 -69c1,-9 0,-14 1,-24l-7 18c0,0 0,0 0,1l-3 6c1,-10 3,-21 3,-31l1 -22c0,-1 0,-3 0,-4 -1,-4 2,0 -1,-3l-6 80 9 -32c0,27 -6,58 -10,84z"/>
   <path class="fil3" d="M3977 3338l4 -14c1,1 1,0 2,3 4,15 3,73 2,87l-14 -2c1,1 -1,1 2,1l14 2c4,-42 -3,-102 -3,-103l-1 -1c-1,5 -5,15 -6,27z"/>
   <path class="fil3" d="M3726 3449l0 -44c13,20 7,82 5,86 -5,-1 -1,2 -4,-4l-1 6 9 1 3 -32c4,-15 -1,-53 1,-73 -4,5 -3,6 -4,13 1,-1 0,-50 1,-59 2,-22 4,-44 7,-66l4 18c2,-6 -1,-11 0,-19 0,-15 8,-59 6,-63 2,9 3,57 1,69 -1,2 -3,15 -6,15 0,0 0,0 0,0 0,0 -1,0 -1,0 0,0 -1,-1 -1,0 2,12 -8,77 -11,94 5,-5 4,-2 5,-19 1,-17 3,-31 6,-48l3 -8c0,0 0,0 0,-1l2 0c17,13 9,15 16,20 1,-8 -4,-10 -5,-18 0,-7 2,-14 0,-20l-2 19c-4,-4 -5,-4 -10,-7 1,-10 4,-17 6,-26 3,-10 4,-19 5,-29 2,-20 3,-44 6,-63 8,28 -11,86 -5,106 2,-15 14,-92 30,-99 -3,13 -8,29 -9,42 -1,9 1,11 -3,21 -9,27 0,73 -6,111 -3,-6 -3,-13 -3,-19 -1,-4 -2,-14 -4,-18 -1,5 1,10 2,16 0,6 1,12 1,16 0,10 -2,28 1,35 4,-16 -2,-16 10,-26 1,9 1,18 0,27 0,13 1,19 -11,22 1,-7 3,-17 1,-23l-11 95 1 0c6,-26 6,-50 8,-63 1,-7 -1,-4 5,-5 3,8 -8,53 -10,67 4,-3 1,3 5,-6l11 -57c2,-15 3,-20 3,-34l0 -24c0,-7 2,-3 -2,-7l-5 8c4,-39 0,-73 2,-94 1,-9 3,-15 5,-22 2,-9 1,-18 2,-24 2,-13 9,-30 10,-45 -7,3 -6,3 -10,10 -3,6 -5,10 -8,16 -3,10 -8,24 -9,38l-2 -1c3,-27 6,-33 4,-64 -1,-11 1,-14 -4,-18 -1,16 -1,29 -3,47 -2,16 -4,33 -5,49l-2 0c0,-3 1,-6 1,-10 0,-1 0,-3 0,-4 -1,-2 0,-3 0,-5l-2 -36c0,-7 1,-12 -1,-17l-8 72c-5,2 0,-3 -4,-1 -3,24 -7,51 -9,75l-1 53c1,5 2,12 1,17 0,-1 0,-2 0,-1l-6 -17c-2,-3 -1,-1 -2,-2 0,5 -3,47 0,54 1,5 -3,-1 1,3zm23 47c2,1 0,0 3,0 1,0 3,0 5,0 -8,-4 -4,2 -5,-4 2,-29 4,-59 6,-87 0,-16 2,-58 -4,-75 0,0 -1,-1 -1,-1 0,0 0,-1 0,-1 -1,10 2,21 2,31l-1 33c0,25 -7,48 -8,72 3,-16 5,-20 7,-38 0,-2 1,-5 1,-6l-5 76zm-13 -2c2,3 0,3 3,1 2,-9 0,-30 0,-31l-1 -2c-3,10 -1,22 -2,32z"/>
   <path class="fil3" d="M3325 3130c2,14 1,31 1,45 -1,15 0,29 1,44 2,18 2,37 1,55 0,12 -7,53 -4,59 4,-60 14,-141 13,-199l-5 -58c8,8 14,23 15,39l1 55c-2,48 -3,63 -9,111l-7 55c-1,17 -1,35 -2,53 0,-6 3,-27 4,-35 0,-13 0,-23 2,-36 10,-54 8,-126 27,-177 4,-12 6,-16 14,-24l-2 5c-1,9 -4,19 -6,28 -3,13 0,18 -4,30 -7,21 -4,37 -5,58 2,28 -17,66 -16,90 3,-9 5,-22 7,-30 8,-31 12,-52 23,-85l2 -7c-3,15 -5,36 -8,53 -3,18 -7,36 -10,53 -4,23 -23,85 -22,101l1 3 43 -221c1,-3 1,-4 0,-7 -2,6 -5,11 -4,18 -4,1 -1,-2 -2,2 -1,6 -1,1 0,5 -4,2 -2,-1 -6,13 -2,6 -3,8 -4,15l-2 -2c0,-1 -1,-1 -1,-1 0,0 -1,0 -1,0 3,-8 3,-21 2,-30 0,-15 8,-31 8,-41 0,-27 8,-32 5,-45 6,0 2,1 4,-3 0,-1 0,-6 0,-7 -10,4 -14,17 -18,27 -3,9 -8,25 -9,37l-2 0c2,-12 2,-4 -2,-6 4,-8 4,-39 2,-49 -1,-6 1,-4 -3,-6 3,-7 -1,-43 -19,-46 3,7 4,29 5,38 3,37 2,86 -2,125l-1 0c1,-16 -1,-12 -3,-13 3,-8 1,-15 1,-23l0 -46c0,-5 0,-7 0,-10 0,-3 0,-2 0,-5 -2,-5 0,-2 -3,-5 3,-8 -2,-32 -6,-37l0 24c1,9 -1,4 3,7 -3,7 -2,6 -2,13 0,0 0,5 0,5 1,6 -2,3 3,5 -2,4 -2,2 -3,7 0,11 -1,3 3,5 -4,9 -12,121 -11,137 0,19 2,40 6,59 1,10 3,17 3,28 1,8 -2,26 2,32 5,-16 -1,-45 -3,-62 -3,-22 -5,-39 -6,-61 0,-49 8,-74 8,-101 0,-10 0,-22 1,-32l0 -12 -1 -23 -1 -16 4 22z"/>
   <path class="fil3" d="M3663 3143c-7,-1 0,-2 -2,2 -3,6 -8,71 -9,80 -4,-5 -2,-11 -5,-22 -2,-7 -3,-14 -10,-17 -1,5 0,15 0,20l0 16c2,5 -1,0 3,4l-1 -26c0,-6 0,-6 2,-8 2,13 9,27 8,44 -2,16 -4,36 -6,53 -4,34 -15,70 -11,104 3,-20 2,-41 6,-62 3,-21 7,-40 9,-61 2,-23 5,-41 9,-63 4,-21 2,-41 7,-64 1,-3 1,-6 2,-9l4 -9c-3,25 -8,52 -9,77 -1,24 2,46 0,70 -5,51 -8,78 -22,127 3,-10 9,-28 10,-36 2,34 -19,112 -20,131 2,-2 1,-1 3,-3 3,-8 10,-56 10,-63l18 3c0,13 -25,50 -26,64 7,-4 17,-32 20,-39 4,-7 7,-13 10,-20 3,-6 8,-14 7,-22 4,0 1,4 4,-5 2,-4 1,-6 1,-10 4,-1 1,1 3,-4 0,-1 0,-5 0,-6l-3 10 -5 15c-2,6 -4,11 -8,12 -5,1 -15,0 -20,-2 0,-3 0,-4 1,-7 1,-2 0,0 2,-2 2,-2 0,0 3,-3 2,-2 4,-7 7,-11l4 -17c3,1 3,6 10,3 2,-1 9,-5 10,-6l-2 7c4,-1 3,3 4,-13l-14 9c-4,-4 -1,-4 -8,-5 -2,6 -6,14 -4,22 -8,2 -2,4 -10,9 3,-24 5,-49 9,-70l8 -60c1,-12 1,-6 -2,-8 8,-18 1,-60 3,-80 2,-32 7,-58 10,-86 -5,3 -3,2 -7,16 -2,7 -4,12 -3,21z"/>
   <path class="fil3" d="M3608 3304c3,6 -2,43 -2,52 -1,0 -1,-1 -1,-1 0,-1 0,-1 0,-1l-3 -15c-2,3 1,26 1,34 2,28 -4,93 -11,118l-1 0c1,2 0,2 1,0 6,2 3,1 5,0 4,-26 10,-54 20,-80 2,13 0,45 -2,61 -1,10 -3,15 2,20 1,-14 3,-98 1,-105 -2,20 -6,27 -11,45 -4,16 -5,30 -10,45 1,-17 4,-48 8,-63 2,-10 11,-53 11,-59 0,0 -1,0 -2,3l-7 33c-2,-32 7,-139 13,-172l2 49c0,1 0,1 0,2 1,-15 0,-29 -1,-44l0 -9c0,-16 2,-12 -2,-15l-11 102zm30 -78c-1,11 -4,16 -4,26 0,9 2,12 1,24 -2,12 -7,34 -12,45 0,0 -1,0 -1,1l1 -46c-1,-6 1,-3 -3,-6l-1 63c-1,8 -4,15 -3,22 3,-4 2,-10 6,-17 -2,12 -7,39 -4,48 3,-28 6,-53 13,-80 13,-48 2,-37 8,-68 1,-8 0,-8 0,-9l-1 -3zm-36 108c-2,1 -4,6 -1,3l1 -3zm-1 -5c-4,3 -5,6 0,3l0 -3zm-2 -8c-5,-7 -9,-15 -19,-17 3,8 0,6 5,8 -3,8 0,14 1,23 1,8 2,14 3,21 2,26 0,31 0,42 0,7 -1,2 2,6 0,-17 2,-32 0,-49 -1,-16 -4,-29 -6,-43l0 -2c3,3 5,5 8,9 7,12 2,11 7,9l-1 -7z"/>
   <path class="fil3" d="M3873 3318c0,-2 1,-7 1,-9 0,-5 0,-5 -2,-8 -2,17 -4,27 -6,44l-2 -1c2,-16 -1,-34 -3,-50 -1,-6 -1,-10 -4,-15l-7 60 -5 -26c-1,-4 -2,-8 -3,-12l-3 -8c-1,-3 0,-1 -1,-3 -3,25 -1,46 -2,69 -2,-2 -2,-3 -5,-5 -2,-2 -4,-3 -5,-5 -1,10 8,43 3,59 -1,5 -5,10 -7,18 -6,29 -6,43 8,66 3,5 0,4 6,7 -1,-12 -7,-7 -12,-30 -4,-13 -2,-26 1,-40 7,-29 14,-8 4,-72 12,11 2,16 7,32l3 15c0,0 0,0 0,1l1 2c1,-5 0,-7 0,-12 -4,-24 -2,-68 -1,-91 9,16 10,49 9,68 -2,30 -2,29 0,56 1,19 1,11 -2,19l7 4 -2 17c-1,4 0,2 -2,4 -3,-2 -3,3 -3,-14l-2 -17c0,-9 -1,-28 -4,-34l8 91c1,-7 -1,-17 -1,-19 1,-5 -1,-3 3,-3 3,9 -7,40 1,43 -4,-6 0,-14 1,-23 2,-26 3,-46 6,-77 3,-28 7,-76 15,-101zm-38 194l-1 7 15 2c-5,-4 -5,-2 -12,-2 -1,-2 -1,-1 -2,-4 0,0 0,-2 0,-3zm23 -221c0,0 -2,-5 0,6 1,3 1,5 2,8 1,6 1,12 2,18 1,14 1,27 0,40l-8 80c-3,9 3,-6 -1,3l-2 2c2,-24 -3,-50 -1,-76 0,-13 4,-73 8,-81z"/>
   <path class="fil3" d="M3479 3480l7 1 8 -92c4,-48 -1,-52 0,-86 5,5 3,8 7,11 6,-44 2,-58 4,-94 7,22 2,80 -1,106l-3 -12c-1,6 1,14 1,21l-1 61c-1,10 -8,81 -12,84l4 3c7,-22 9,-117 11,-146 1,-23 8,-49 11,-72 2,-14 0,-24 2,-37 2,-11 4,-26 1,-35l-1 18c1,9 -7,58 -4,72 -7,-7 0,-19 -3,-40 0,-2 0,-4 0,-5 0,-1 0,-2 0,-2 -1,-7 -2,-20 -4,-27 -2,-3 -2,-2 -3,-3l0 24c0,1 0,1 0,1l0 7c-1,13 0,41 -2,57l-3 -16c0,-5 0,-10 -1,-15 -1,-7 -1,-25 -6,-29l-1 28c0,1 0,5 0,5 1,5 -2,1 2,4l2 -20 3 47c-5,3 6,1 -2,0l-3 0c0,-1 0,0 -1,0 3,17 6,41 -2,59 0,-9 0,-15 0,-24 -3,8 1,17 -3,23 -3,-6 -2,-23 -3,-30 0,-16 -3,-11 6,-24l-1 31c1,-8 4,-56 2,-61 -2,22 1,14 -6,32 -4,-3 -3,-1 -4,-17 0,-4 0,-8 0,-10 0,-6 0,-5 -2,-9l-7 199c0,9 -1,8 3,10 0,2 -6,8 2,1 -5,-2 3,-38 4,-45 1,-8 2,-16 3,-24 3,-18 6,-17 1,-25 -3,27 -6,53 -10,80 -4,-19 1,-160 5,-176 -1,7 3,35 3,47l3 50c0,-3 1,-5 1,-8 0,-2 0,-3 -1,-4 0,-1 0,-1 0,-2 0,-11 -2,-7 1,-9 4,-3 -3,15 1,25l5 -32c4,13 -5,101 -7,122 -1,1 0,0 -3,1 0,0 -3,1 -3,1z"/>
   <path class="fil3" d="M3523 3246c1,20 -2,40 -1,60 0,16 -2,42 -4,60 -3,19 -13,109 -18,118l1 0c6,-11 17,-114 19,-133 3,-25 0,-41 7,-66 4,-14 10,-45 22,-50 -2,9 -5,16 -7,26 -2,11 1,15 -4,26 -3,11 -3,19 -3,29 0,5 0,9 0,13 0,10 -2,7 -2,14 4,-4 9,-29 26,-33 -4,10 -8,20 -12,31 -5,12 -6,23 -10,34l-8 47c3,-1 3,2 4,-10 2,-16 6,-27 4,-37 7,0 0,2 3,-2l10 -34c2,-5 4,-11 6,-17 3,-5 7,-13 8,-17 -18,-1 -21,18 -28,22 1,-10 0,-15 2,-26 1,-9 5,-14 5,-25 1,-15 -2,-2 4,-23 2,-8 5,-17 6,-24 -7,2 -7,4 -11,9 -10,15 -11,25 -15,39 -2,5 -1,5 -5,8 3,-8 3,-14 2,-22 0,0 0,0 0,-1 0,0 0,-1 0,-1 0,-10 3,-11 -1,-15zm-11 239l4 1c-4,-5 -2,0 -3,-8l3 -28c2,-29 4,-45 9,-74 2,-10 8,-23 8,-33 0,1 0,0 -2,3 0,1 -1,3 -1,3 -1,3 -2,6 -2,9 -2,6 -3,11 -4,16 -6,28 -12,86 -12,111z"/>
   <path class="fil3" d="M4125 3398c-2,4 -1,0 -1,5 0,4 -1,1 1,3l0 -8c-2,-46 -2,-89 7,-134 4,-21 11,-44 14,-65 2,-21 3,-53 7,-71 0,27 1,40 -4,68 -4,24 -1,47 -5,71 -3,25 -4,44 -5,68 -1,25 -6,46 -9,70 3,-2 4,-10 5,-16l6 -74c1,-6 2,-14 3,-20l4 -38c1,-9 0,-12 0,-18 1,-18 2,-42 6,-59 3,-11 2,-27 2,-36 0,-8 0,-12 -1,-19 -1,-13 0,-12 -3,-15 -1,8 0,10 -1,17 -4,53 -8,79 -20,128 -2,6 -2,13 -3,19 -2,16 -7,37 -7,56 0,11 1,23 1,34l1 30c1,5 -2,1 2,4z"/>
   <path class="fil3" d="M4037 3339l9 -106c3,4 2,12 2,20 1,7 1,14 1,21l-3 79c4,-2 3,-15 4,-20l1 -56c-1,-5 2,-1 -2,-3 5,-14 -1,-46 1,-65l-2 2c-4,8 -11,87 -11,95 1,9 -2,18 -2,26 -1,10 -1,5 2,7z"/>
   <path class="fil3" d="M3852 3521l9 -1c4,-7 4,-11 5,-21 -1,1 -1,1 -1,2l-2 4c0,2 -1,4 -1,5 0,4 -1,8 -2,12 0,0 -4,-1 -4,-1 -4,-1 -2,0 -4,0z"/>
   <path class="fil3" d="M3599 3321l1 7 1 1 0 3 1 2 -1 3 1 2 3 15c0,0 0,0 0,1 0,0 0,1 1,1 0,-9 5,-46 2,-52 -2,1 -1,0 -3,2 -2,2 -1,2 -2,4 -2,4 -2,7 -4,11z"/>
   <path class="fil3" d="M4067 3416c-3,-7 1,-43 1,-54 1,-17 -1,-35 -1,-52 -1,-29 1,-85 8,-112 16,51 -2,159 -6,218 0,0 0,-1 0,-1l2 -4c0,-2 1,-6 1,-8l8 -77c1,-12 0,-18 2,-31 1,-7 0,-8 0,-13l0 -44c0,-11 -1,-17 -2,-27 0,-7 -1,-20 -6,-24 -5,50 -12,93 -9,143 2,28 1,57 -2,86l4 0z"/>
   <path class="fil3" d="M3999 3336c10,-8 7,-23 8,-35 3,1 4,2 8,3 4,-3 5,-4 10,-10l1 3 1 10c1,29 0,36 -15,38l-11 2c0,0 1,0 1,1 0,2 12,-1 18,0 -1,20 -11,50 -10,68l3 -5c1,-2 1,-4 1,-6l8 -42c1,-11 9,-40 6,-52 -1,-5 2,0 -1,-4 0,-2 1,-3 1,-6 0,-4 1,-1 -2,-4l2 -9c-4,1 -3,1 -6,5 -3,3 -5,4 -7,7 -7,-2 -1,-2 -8,-4 -1,7 -1,20 -2,23 -1,8 -8,13 -6,17z"/>
   <path class="fil3" d="M4100 3301c-3,9 -3,43 -5,59 -2,22 -2,39 -4,60 1,3 -1,1 1,0 0,-16 3,-43 5,-61 1,-18 3,-40 3,-58 -1,-24 -5,-40 -8,-62 22,12 20,57 20,80 -1,31 -5,72 -12,102 4,-4 2,-3 4,-11 1,-5 2,-7 2,-13l8 -82c1,-17 -1,-64 -15,-76 -4,-3 -5,-4 -11,-5 3,9 5,22 7,32 0,7 1,11 2,17l1 14c1,5 -1,2 2,4z"/>
   <path class="fil3" d="M4148 3332c2,-37 27,-192 50,-206l-9 39c4,-1 1,2 4,-9 2,-11 6,-22 7,-35 -7,1 -11,10 -14,17 -7,16 -7,22 -11,37l-13 55c-3,14 -18,87 -16,99 1,4 -1,0 2,3z"/>
   <path class="fil3" d="M3865 3498c4,-2 1,2 3,-4l10 -69c1,-9 0,-14 1,-24l-7 18c0,0 0,0 0,1l-3 6c1,-10 3,-21 3,-31l1 -22c0,-1 0,-3 0,-4 -1,-4 2,0 -1,-3l-6 80 9 -32c0,27 -6,58 -10,84z"/>
   <path class="fil3" d="M3977 3338l4 -14c1,1 1,0 2,3 4,15 3,73 2,87l-14 -2c1,1 -1,1 2,1l14 2c4,-42 -3,-102 -3,-103l-1 -1c-1,5 -5,15 -6,27z"/>
   <path class="fil3" d="M3726 3449l0 -44c13,20 7,82 5,86 -5,-1 -1,2 -4,-4l-1 6 9 1 3 -32c4,-15 -1,-53 1,-73 -4,5 -3,6 -4,13 1,-1 0,-50 1,-59 2,-22 4,-44 7,-66l4 18c2,-6 -1,-11 0,-19 0,-15 8,-59 6,-63 2,9 3,57 1,69 -1,2 -3,15 -6,15 0,0 0,0 0,0 0,0 -1,0 -1,0 0,0 -1,-1 -1,0 2,12 -8,77 -11,94 5,-5 4,-2 5,-19 1,-17 3,-31 6,-48l3 -8c0,0 0,0 0,-1l2 0c17,13 9,15 16,20 1,-8 -4,-10 -5,-18 0,-7 2,-14 0,-20l-2 19c-4,-4 -5,-4 -10,-7 1,-10 4,-17 6,-26 3,-10 4,-19 5,-29 2,-20 3,-44 6,-63 8,28 -11,86 -5,106 2,-15 14,-92 30,-99 -3,13 -8,29 -9,42 -1,9 1,11 -3,21 -9,27 0,73 -6,111 -3,-6 -3,-13 -3,-19 -1,-4 -2,-14 -4,-18 -1,5 1,10 2,16 0,6 1,12 1,16 0,10 -2,28 1,35 4,-16 -2,-16 10,-26 1,9 1,18 0,27 0,13 1,19 -11,22 1,-7 3,-17 1,-23l-11 95 1 0c6,-26 6,-50 8,-63 1,-7 -1,-4 5,-5 3,8 -8,53 -10,67 4,-3 1,3 5,-6l11 -57c2,-15 3,-20 3,-34l0 -24c0,-7 2,-3 -2,-7l-5 8c4,-39 0,-73 2,-94 1,-9 3,-15 5,-22 2,-9 1,-18 2,-24 2,-13 9,-30 10,-45 -7,3 -6,3 -10,10 -3,6 -5,10 -8,16 -3,10 -8,24 -9,38l-2 -1c3,-27 6,-33 4,-64 -1,-11 1,-14 -4,-18 -1,16 -1,29 -3,47 -2,16 -4,33 -5,49l-2 0c0,-3 1,-6 1,-10 0,-1 0,-3 0,-4 -1,-2 0,-3 0,-5l-2 -36c0,-7 1,-12 -1,-17l-8 72c-5,2 0,-3 -4,-1 -3,24 -7,51 -9,75l-1 53c1,5 2,12 1,17 0,-1 0,-2 0,-1l-6 -17c-2,-3 -1,-1 -2,-2 0,5 -3,47 0,54 1,5 -3,-1 1,3zm23 47c2,1 0,0 3,0 1,0 3,0 5,0 -8,-4 -4,2 -5,-4 2,-29 4,-59 6,-87 0,-16 2,-58 -4,-75 0,0 -1,-1 -1,-1 0,0 0,-1 0,-1 -1,10 2,21 2,31l-1 33c0,25 -7,48 -8,72 3,-16 5,-20 7,-38 0,-2 1,-5 1,-6l-5 76zm-13 -2c2,3 0,3 3,1 2,-9 0,-30 0,-31l-1 -2c-3,10 -1,22 -2,32z"/>
   <path class="fil3" d="M3325 3130c2,14 1,31 1,45 -1,15 0,29 1,44 2,18 2,37 1,55 0,12 -7,53 -4,59 4,-60 14,-141 13,-199l-5 -58c8,8 14,23 15,39l1 55c-2,48 -3,63 -9,111l-7 55c-1,17 -1,35 -2,53 0,-6 3,-27 4,-35 0,-13 0,-23 2,-36 10,-54 8,-126 27,-177 4,-12 6,-16 14,-24l-2 5c-1,9 -4,19 -6,28 -3,13 0,18 -4,30 -7,21 -4,37 -5,58 2,28 -17,66 -16,90 3,-9 5,-22 7,-30 8,-31 12,-52 23,-85l2 -7c-3,15 -5,36 -8,53 -3,18 -7,36 -10,53 -4,23 -23,85 -22,101l1 3 43 -221c1,-3 1,-4 0,-7 -2,6 -5,11 -4,18 -4,1 -1,-2 -2,2 -1,6 -1,1 0,5 -4,2 -2,-1 -6,13 -2,6 -3,8 -4,15l-2 -2c0,-1 -1,-1 -1,-1 0,0 -1,0 -1,0 3,-8 3,-21 2,-30 0,-15 8,-31 8,-41 0,-27 8,-32 5,-45 6,0 2,1 4,-3 0,-1 0,-6 0,-7 -10,4 -14,17 -18,27 -3,9 -8,25 -9,37l-2 0c2,-12 2,-4 -2,-6 4,-8 4,-39 2,-49 -1,-6 1,-4 -3,-6 3,-7 -1,-43 -19,-46 3,7 4,29 5,38 3,37 2,86 -2,125l-1 0c1,-16 -1,-12 -3,-13 3,-8 1,-15 1,-23l0 -46c0,-5 0,-7 0,-10 0,-3 0,-2 0,-5 -2,-5 0,-2 -3,-5 3,-8 -2,-32 -6,-37l0 24c1,9 -1,4 3,7 -3,7 -2,6 -2,13 0,0 0,5 0,5 1,6 -2,3 3,5 -2,4 -2,2 -3,7 0,11 -1,3 3,5 -4,9 -12,121 -11,137 0,19 2,40 6,59 1,10 3,17 3,28 1,8 -2,26 2,32 5,-16 -1,-45 -3,-62 -3,-22 -5,-39 -6,-61 0,-49 8,-74 8,-101 0,-10 0,-22 1,-32l0 -12 -1 -23 -1 -16 4 22z"/>
   <path class="fil3" d="M3663 3143c-7,-1 0,-2 -2,2 -3,6 -8,71 -9,80 -4,-5 -2,-11 -5,-22 -2,-7 -3,-14 -10,-17 -1,5 0,15 0,20l0 16c2,5 -1,0 3,4l-1 -26c0,-6 0,-6 2,-8 2,13 9,27 8,44 -2,16 -4,36 -6,53 -4,34 -15,70 -11,104 3,-20 2,-41 6,-62 3,-21 7,-40 9,-61 2,-23 5,-41 9,-63 4,-21 2,-41 7,-64 1,-3 1,-6 2,-9l4 -9c-3,25 -8,52 -9,77 -1,24 2,46 0,70 -5,51 -8,78 -22,127 3,-10 9,-28 10,-36 2,34 -19,112 -20,131 2,-2 1,-1 3,-3 3,-8 10,-56 10,-63l18 3c0,13 -25,50 -26,64 7,-4 17,-32 20,-39 4,-7 7,-13 10,-20 3,-6 8,-14 7,-22 4,0 1,4 4,-5 2,-4 1,-6 1,-10 4,-1 1,1 3,-4 0,-1 0,-5 0,-6l-3 10 -5 15c-2,6 -4,11 -8,12 -5,1 -15,0 -20,-2 0,-3 0,-4 1,-7 1,-2 0,0 2,-2 2,-2 0,0 3,-3 2,-2 4,-7 7,-11l4 -17c3,1 3,6 10,3 2,-1 9,-5 10,-6l-2 7c4,-1 3,3 4,-13l-14 9c-4,-4 -1,-4 -8,-5 -2,6 -6,14 -4,22 -8,2 -2,4 -10,9 3,-24 5,-49 9,-70l8 -60c1,-12 1,-6 -2,-8 8,-18 1,-60 3,-80 2,-32 7,-58 10,-86 -5,3 -3,2 -7,16 -2,7 -4,12 -3,21z"/>
   <path class="fil3" d="M3608 3304c3,6 -2,43 -2,52 -1,0 -1,-1 -1,-1 0,-1 0,-1 0,-1l-3 -15c-2,3 1,26 1,34 2,28 -4,93 -11,118l-1 0c1,2 0,2 1,0 6,2 3,1 5,0 4,-26 10,-54 20,-80 2,13 0,45 -2,61 -1,10 -3,15 2,20 1,-14 3,-98 1,-105 -2,20 -6,27 -11,45 -4,16 -5,30 -10,45 1,-17 4,-48 8,-63 2,-10 11,-53 11,-59 0,0 -1,0 -2,3l-7 33c-2,-32 7,-139 13,-172l2 49c0,1 0,1 0,2 1,-15 0,-29 -1,-44l0 -9c0,-16 2,-12 -2,-15l-11 102zm30 -78c-1,11 -4,16 -4,26 0,9 2,12 1,24 -2,12 -7,34 -12,45 0,0 -1,0 -1,1l1 -46c-1,-6 1,-3 -3,-6l-1 63c-1,8 -4,15 -3,22 3,-4 2,-10 6,-17 -2,12 -7,39 -4,48 3,-28 6,-53 13,-80 13,-48 2,-37 8,-68 1,-8 0,-8 0,-9l-1 -3zm-36 108c-2,1 -4,6 -1,3l1 -3zm-1 -5c-4,3 -5,6 0,3l0 -3zm-2 -8c-5,-7 -9,-15 -19,-17 3,8 0,6 5,8 -3,8 0,14 1,23 1,8 2,14 3,21 2,26 0,31 0,42 0,7 -1,2 2,6 0,-17 2,-32 0,-49 -1,-16 -4,-29 -6,-43l0 -2c3,3 5,5 8,9 7,12 2,11 7,9l-1 -7z"/>
   <path class="fil3" d="M3873 3318c0,-2 1,-7 1,-9 0,-5 0,-5 -2,-8 -2,17 -4,27 -6,44l-2 -1c2,-16 -1,-34 -3,-50 -1,-6 -1,-10 -4,-15l-7 60 -5 -26c-1,-4 -2,-8 -3,-12l-3 -8c-1,-3 0,-1 -1,-3 -3,25 -1,46 -2,69 -2,-2 -2,-3 -5,-5 -2,-2 -4,-3 -5,-5 -1,10 8,43 3,59 -1,5 -5,10 -7,18 -6,29 -6,43 8,66 3,5 0,4 6,7 -1,-12 -7,-7 -12,-30 -4,-13 -2,-26 1,-40 7,-29 14,-8 4,-72 12,11 2,16 7,32l3 15c0,0 0,0 0,1l1 2c1,-5 0,-7 0,-12 -4,-24 -2,-68 -1,-91 9,16 10,49 9,68 -2,30 -2,29 0,56 1,19 1,11 -2,19l7 4 -2 17c-1,4 0,2 -2,4 -3,-2 -3,3 -3,-14l-2 -17c0,-9 -1,-28 -4,-34l8 91c1,-7 -1,-17 -1,-19 1,-5 -1,-3 3,-3 3,9 -7,40 1,43 -4,-6 0,-14 1,-23 2,-26 3,-46 6,-77 3,-28 7,-76 15,-101zm-38 194l-1 7 15 2c-5,-4 -5,-2 -12,-2 -1,-2 -1,-1 -2,-4 0,0 0,-2 0,-3zm23 -221c0,0 -2,-5 0,6 1,3 1,5 2,8 1,6 1,12 2,18 1,14 1,27 0,40l-8 80c-3,9 3,-6 -1,3l-2 2c2,-24 -3,-50 -1,-76 0,-13 4,-73 8,-81z"/>
   <path class="fil3" d="M3479 3480l7 1 8 -92c4,-48 -1,-52 0,-86 5,5 3,8 7,11 6,-44 2,-58 4,-94 7,22 2,80 -1,106l-3 -12c-1,6 1,14 1,21l-1 61c-1,10 -8,81 -12,84l4 3c7,-22 9,-117 11,-146 1,-23 8,-49 11,-72 2,-14 0,-24 2,-37 2,-11 4,-26 1,-35l-1 18c1,9 -7,58 -4,72 -7,-7 0,-19 -3,-40 0,-2 0,-4 0,-5 0,-1 0,-2 0,-2 -1,-7 -2,-20 -4,-27 -2,-3 -2,-2 -3,-3l0 24c0,1 0,1 0,1l0 7c-1,13 0,41 -2,57l-3 -16c0,-5 0,-10 -1,-15 -1,-7 -1,-25 -6,-29l-1 28c0,1 0,5 0,5 1,5 -2,1 2,4l2 -20 3 47c-5,3 6,1 -2,0l-3 0c0,-1 0,0 -1,0 3,17 6,41 -2,59 0,-9 0,-15 0,-24 -3,8 1,17 -3,23 -3,-6 -2,-23 -3,-30 0,-16 -3,-11 6,-24l-1 31c1,-8 4,-56 2,-61 -2,22 1,14 -6,32 -4,-3 -3,-1 -4,-17 0,-4 0,-8 0,-10 0,-6 0,-5 -2,-9l-7 199c0,9 -1,8 3,10 0,2 -6,8 2,1 -5,-2 3,-38 4,-45 1,-8 2,-16 3,-24 3,-18 6,-17 1,-25 -3,27 -6,53 -10,80 -4,-19 1,-160 5,-176 -1,7 3,35 3,47l3 50c0,-3 1,-5 1,-8 0,-2 0,-3 -1,-4 0,-1 0,-1 0,-2 0,-11 -2,-7 1,-9 4,-3 -3,15 1,25l5 -32c4,13 -5,101 -7,122 -1,1 0,0 -3,1 0,0 -3,1 -3,1z"/>
   <path class="fil3" d="M3523 3246c1,20 -2,40 -1,60 0,16 -2,42 -4,60 -3,19 -13,109 -18,118l1 0c6,-11 17,-114 19,-133 3,-25 0,-41 7,-66 4,-14 10,-45 22,-50 -2,9 -5,16 -7,26 -2,11 1,15 -4,26 -3,11 -3,19 -3,29 0,5 0,9 0,13 0,10 -2,7 -2,14 4,-4 9,-29 26,-33 -4,10 -8,20 -12,31 -5,12 -6,23 -10,34l-8 47c3,-1 3,2 4,-10 2,-16 6,-27 4,-37 7,0 0,2 3,-2l10 -34c2,-5 4,-11 6,-17 3,-5 7,-13 8,-17 -18,-1 -21,18 -28,22 1,-10 0,-15 2,-26 1,-9 5,-14 5,-25 1,-15 -2,-2 4,-23 2,-8 5,-17 6,-24 -7,2 -7,4 -11,9 -10,15 -11,25 -15,39 -2,5 -1,5 -5,8 3,-8 3,-14 2,-22 0,0 0,0 0,-1 0,0 0,-1 0,-1 0,-10 3,-11 -1,-15zm-11 239l4 1c-4,-5 -2,0 -3,-8l3 -28c2,-29 4,-45 9,-74 2,-10 8,-23 8,-33 0,1 0,0 -2,3 0,1 -1,3 -1,3 -1,3 -2,6 -2,9 -2,6 -3,11 -4,16 -6,28 -12,86 -12,111z"/>
   <path class="fil3" d="M4125 3398c-2,4 -1,0 -1,5 0,4 -1,1 1,3l0 -8c-2,-46 -2,-89 7,-134 4,-21 11,-44 14,-65 2,-21 3,-53 7,-71 0,27 1,40 -4,68 -4,24 -1,47 -5,71 -3,25 -4,44 -5,68 -1,25 -6,46 -9,70 3,-2 4,-10 5,-16l6 -74c1,-6 2,-14 3,-20l4 -38c1,-9 0,-12 0,-18 1,-18 2,-42 6,-59 3,-11 2,-27 2,-36 0,-8 0,-12 -1,-19 -1,-13 0,-12 -3,-15 -1,8 0,10 -1,17 -4,53 -8,79 -20,128 -2,6 -2,13 -3,19 -2,16 -7,37 -7,56 0,11 1,23 1,34l1 30c1,5 -2,1 2,4z"/>
   <path class="fil3" d="M4037 3339l9 -106c3,4 2,12 2,20 1,7 1,14 1,21l-3 79c4,-2 3,-15 4,-20l1 -56c-1,-5 2,-1 -2,-3 5,-14 -1,-46 1,-65l-2 2c-4,8 -11,87 -11,95 1,9 -2,18 -2,26 -1,10 -1,5 2,7z"/>
   <path class="fil3" d="M3852 3521l9 -1c4,-7 4,-11 5,-21 -1,1 -1,1 -1,2l-2 4c0,2 -1,4 -1,5 0,4 -1,8 -2,12 0,0 -4,-1 -4,-1 -4,-1 -2,0 -4,0z"/>
   <path class="fil3" d="M3599 3321l1 7 1 1 0 3 1 2 -1 3 1 2 3 15c0,0 0,0 0,1 0,0 0,1 1,1 0,-9 5,-46 2,-52 -2,1 -1,0 -3,2 -2,2 -1,2 -2,4 -2,4 -2,7 -4,11z"/>
   <path class="fil3" d="M4083 3418c-3,-7 1,-44 2,-55 0,-16 -1,-34 -2,-51 -1,-29 1,-85 8,-113 16,52 -2,160 -6,219 0,0 0,-1 0,-1l2 -5c0,-1 1,-5 1,-7l8 -77c1,-12 1,-19 2,-31 1,-7 0,-9 0,-13l1 -45c-1,-10 -2,-16 -3,-26 0,-7 -1,-20 -6,-24 -5,50 -11,93 -8,143 1,28 0,57 -3,85l4 1z"/>
   <path class="fil3" d="M4015 3338c10,-8 8,-24 9,-36 2,2 3,3 7,4 4,-4 6,-5 10,-10l1 3 1 10c1,29 0,36 -14,37l-12 3c0,0 1,0 1,0 1,3 12,0 18,0 0,20 -11,51 -10,69l3 -5c1,-3 1,-4 1,-7l8 -42c2,-10 9,-39 6,-52 -1,-4 2,0 -1,-3 1,-2 1,-3 1,-6 0,-4 1,-2 -2,-4l2 -9c-4,1 -3,1 -6,5 -3,3 -5,4 -7,7 -7,-3 -1,-3 -8,-4 -1,7 -1,20 -2,23 -1,7 -8,12 -6,17z"/>
   <path class="fil3" d="M4116 3303c-3,9 -3,42 -4,59 -3,22 -3,39 -5,60 1,2 -1,1 2,0 -1,-17 3,-44 4,-61 1,-18 3,-41 3,-58 -1,-25 -5,-41 -8,-62 22,12 20,56 20,80 -1,31 -5,72 -11,102 3,-4 1,-3 3,-11 1,-5 2,-8 2,-14l8 -81c1,-18 -1,-64 -15,-76 -4,-3 -5,-4 -11,-5 3,8 5,22 7,32 1,7 1,10 2,17l1 14c1,5 -1,1 2,4z"/>
   <path class="fil3" d="M4164 3334c2,-38 28,-192 50,-206l-9 39c4,-1 1,2 4,-10 2,-10 6,-22 8,-34 -8,1 -11,10 -15,17 -7,15 -7,22 -11,37l-13 55c-2,13 -18,87 -16,98 1,5 -1,0 2,4z"/>
   <path class="fil3" d="M3881 3499c4,-1 1,2 3,-4l10 -68c1,-9 0,-14 1,-25l-6 18c-1,1 -1,1 -1,1l-3 7c1,-10 3,-21 3,-31l1 -22c0,-1 1,-3 0,-4 0,-5 2,0 -1,-3l-6 79 9 -31c0,27 -6,57 -10,83z"/>
   <path class="fil3" d="M3993 3339l4 -14c1,1 1,0 2,4 4,15 3,73 2,87l-14 -3c1,2 0,1 3,2l13 2c4,-42 -3,-102 -3,-104l-1 0c-1,5 -5,14 -6,26z"/>
   <path class="fil3" d="M3742 3451l1 -45c13,21 6,83 4,87 -5,-1 -1,2 -4,-4l-1 6 9 1 4 -32c3,-15 -2,-53 0,-73 -4,5 -3,6 -4,13 1,-1 1,-50 1,-60 2,-21 4,-43 7,-66l5 19c1,-7 -1,-12 -1,-19 0,-15 8,-59 6,-64 2,10 3,58 1,70 -1,2 -3,14 -5,15 -1,0 -1,0 -1,0 0,0 -1,-1 -1,-1 0,0 0,0 -1,0 2,13 -8,78 -11,94 5,-4 4,-1 5,-18 2,-17 3,-31 6,-49l3 -7c0,0 0,-1 0,-1l3 -1c16,13 9,15 15,21 1,-8 -4,-10 -4,-18 -1,-7 1,-14 -1,-21l-2 20c-4,-4 -5,-4 -10,-8 1,-9 4,-16 6,-25 3,-10 4,-19 5,-29 3,-21 3,-44 6,-63 8,28 -11,85 -5,105 2,-14 14,-91 30,-99 -3,13 -8,29 -9,42 -1,9 1,12 -2,21 -10,28 -1,74 -7,112 -3,-6 -2,-13 -3,-19 0,-4 -2,-15 -4,-18 0,5 1,10 2,16 0,6 1,12 1,16 0,10 -2,28 1,35 4,-16 -1,-16 10,-26 1,9 1,18 1,27 -1,12 0,19 -12,22 1,-7 3,-18 1,-23l-11 95 1 0c6,-26 6,-50 8,-63 1,-7 -1,-5 5,-6 3,9 -8,54 -10,68 5,-3 2,3 5,-6l11 -58c2,-14 3,-19 4,-33l-1 -24c0,-8 2,-3 -2,-7l-5 8c4,-40 0,-73 2,-94 1,-9 4,-15 5,-22 2,-9 2,-19 2,-24 2,-13 9,-30 10,-45 -7,3 -6,3 -10,10 -3,5 -5,9 -7,16 -4,10 -9,24 -10,37l-1 0c2,-28 5,-33 3,-64 0,-11 1,-15 -4,-18 -1,16 -1,29 -3,46 -2,17 -4,33 -5,50l-2 0c1,-4 1,-7 1,-10 0,-1 0,-4 0,-4 0,-2 0,-3 0,-5l-2 -36c0,-7 1,-13 -1,-18l-8 73c-4,1 0,-3 -4,-2 -3,25 -7,51 -8,76l-1 53c0,4 1,11 1,16 -1,0 -1,-1 -1,-1l-6 -16c-1,-3 0,-1 -2,-3 0,6 -2,47 0,54 1,6 -3,-1 1,4zm23 46c2,2 1,1 3,1 1,0 3,0 5,0 -8,-4 -4,1 -5,-5 3,-28 4,-58 6,-86 0,-16 2,-58 -4,-75 0,-1 -1,-1 -1,-1 0,0 0,-1 0,-1 -1,10 2,21 2,31l-1 33c0,25 -6,47 -8,72 3,-16 5,-20 7,-38 1,-2 1,-6 1,-7l-5 76zm-13 -1c2,2 0,2 3,0 2,-8 0,-30 0,-30l0 -2c-3,10 -2,22 -3,32z"/>
   <path class="fil3" d="M3341 3132c3,13 2,31 1,44 -1,16 1,30 1,45 2,17 2,37 1,55 0,12 -7,52 -4,59 4,-60 14,-141 13,-199l-4 -58c7,8 13,23 14,39l1 55c-2,48 -3,63 -9,111l-7 55c-1,17 -1,35 -2,52 0,-5 3,-26 4,-34 1,-13 0,-23 2,-36 10,-54 8,-127 27,-178 5,-11 6,-16 14,-23l-1 5c-2,9 -5,19 -7,28 -3,12 0,18 -4,30 -6,21 -4,36 -5,57 2,29 -17,67 -16,91 3,-9 5,-23 7,-30 8,-31 12,-52 23,-85l2 -7c-3,15 -5,36 -8,53 -3,18 -7,35 -10,53 -4,23 -23,84 -22,101l1 3 43 -221c1,-3 2,-4 0,-7 -2,6 -4,11 -4,18 -4,1 -1,-2 -2,2 -1,5 0,1 0,5 -4,2 -2,-1 -6,13 -2,5 -3,8 -4,15l-2 -3c0,0 0,0 -1,0 0,0 0,-1 -1,-1 4,-8 3,-21 3,-29 -1,-15 7,-31 7,-41 0,-27 8,-32 6,-45 5,0 1,1 3,-4 0,-1 0,-5 1,-7 -11,4 -15,18 -18,28 -4,9 -9,24 -10,37l-1 0c1,-12 1,-5 -3,-6 4,-9 4,-39 2,-49 -1,-6 1,-5 -3,-6 4,-8 -1,-44 -19,-46 3,7 4,28 5,37 3,37 2,87 -2,125l-1 0c2,-15 -1,-11 -3,-12 3,-9 1,-15 1,-23l1 -46c-1,-5 -1,-7 -1,-10 0,-4 0,-2 0,-5 -2,-6 0,-3 -3,-5 3,-8 -2,-32 -5,-37l0 24c0,9 -2,4 2,7 -3,6 -2,6 -2,13 0,0 0,5 0,5 1,6 -2,3 3,5 -2,4 -2,2 -2,7 -1,10 -2,2 2,5 -4,9 -11,121 -11,136 0,19 3,41 6,59 2,10 3,18 4,29 0,8 -3,26 1,32 5,-17 -1,-45 -3,-62 -3,-22 -5,-39 -5,-61 -1,-50 7,-75 7,-101 1,-11 0,-22 1,-32l0 -12 -1 -23 0 -16 3 22z"/>
   <path class="fil3" d="M3679 3145c-6,-1 0,-2 -2,2 -3,5 -8,71 -9,79 -4,-5 -2,-10 -5,-21 -2,-7 -3,-14 -10,-17 -1,5 0,15 0,19l1 16c1,6 -2,1 2,5l-1 -26c0,-6 0,-6 2,-8 2,13 9,27 8,44 -1,16 -4,36 -6,52 -3,35 -15,71 -11,105 3,-21 3,-41 6,-63 3,-20 7,-39 9,-61 2,-22 5,-40 9,-62 4,-21 2,-41 7,-64 1,-3 1,-7 2,-10l4 -8c-3,25 -8,52 -9,77 -1,24 2,45 0,70 -5,51 -8,77 -22,127 3,-10 10,-28 10,-36 3,34 -19,112 -20,131 2,-2 1,-1 3,-4 4,-7 10,-55 11,-62l17 3c0,13 -25,50 -26,64 7,-4 17,-32 21,-39 3,-7 6,-13 9,-20 3,-7 9,-15 7,-22 4,0 1,4 5,-5 1,-4 0,-7 0,-11 5,0 1,1 3,-3 0,-1 0,-5 1,-7l-4 10 -5 16c-2,6 -4,11 -8,12 -5,1 -15,-1 -20,-2 0,-3 0,-4 1,-7 2,-2 1,-1 2,-3 2,-1 0,1 3,-2 2,-3 5,-7 7,-11l5 -17c2,0 2,6 10,3 1,-1 8,-5 9,-6l-2 7c4,-2 3,3 5,-13l-15 9c-4,-4 -1,-4 -8,-6 -2,7 -5,14 -4,23 -8,2 -2,4 -10,8 3,-23 5,-48 9,-70l8 -59c1,-12 2,-7 -2,-8 8,-19 1,-60 3,-80 3,-32 7,-59 10,-86 -4,3 -3,2 -7,16 -2,7 -4,12 -3,21z"/>
   <path class="fil3" d="M3624 3306c3,5 -1,43 -2,52 -1,-1 -1,-1 -1,-2 0,0 0,0 0,-1l-2 -14c-2,2 0,26 1,34 1,28 -5,92 -12,117l-1 0c1,3 0,2 1,0 7,3 3,2 5,1 4,-26 10,-54 20,-80 2,12 0,45 -1,61 -1,10 -4,15 1,20 2,-14 4,-99 1,-105 -2,20 -6,27 -10,45 -5,16 -5,30 -11,44 1,-16 4,-47 8,-62 2,-10 11,-53 11,-59 0,0 -1,0 -2,3l-7 32c-2,-32 7,-138 13,-171l2 49c0,0 0,1 0,1 2,-14 0,-29 0,-43l-1 -9c0,-16 2,-12 -2,-15l-11 102zm30 -78c-1,10 -3,15 -4,26 0,9 2,12 1,23 -2,12 -7,35 -12,45 0,1 0,1 -1,1l1 -45c-1,-6 1,-3 -2,-6l-2 63c-1,8 -4,14 -3,22 3,-4 2,-10 6,-17 -1,12 -7,38 -3,48 2,-28 5,-53 12,-80 13,-48 2,-37 8,-69 1,-7 0,-8 0,-8l-1 -3zm-36 107c-2,2 -4,6 -1,4l1 -4zm-1 -4c-4,3 -5,6 0,3l0 -3zm-2 -9c-5,-6 -9,-15 -19,-16 3,8 0,6 5,7 -3,8 0,15 2,23 1,8 1,15 2,22 2,26 0,30 0,41 0,8 -1,3 2,6 0,-17 2,-31 1,-49 -2,-15 -5,-28 -7,-43l0 -1c4,3 6,4 8,8 7,12 2,12 7,10l-1 -8z"/>
   <path class="fil3" d="M3889 3320c0,-3 1,-7 1,-10 0,-5 0,-4 -2,-7 -2,16 -4,27 -6,43l-2 0c2,-16 0,-35 -3,-51 0,-5 -1,-10 -4,-14l-7 59 -5 -25c-1,-5 -1,-8 -3,-12l-3 -9c-1,-2 0,-1 -1,-2 -3,25 -1,46 -2,69 -2,-2 -2,-3 -5,-5 -2,-2 -3,-4 -5,-5 -1,10 9,42 3,59 -1,5 -5,10 -7,17 -6,30 -6,44 8,67 3,5 1,4 6,7 -1,-13 -6,-7 -12,-30 -4,-13 -2,-27 1,-40 8,-29 15,-8 4,-72 12,10 3,16 7,31l3 15c0,1 0,1 0,1l1 3c1,-5 0,-7 0,-12 -4,-24 -2,-68 -1,-91 9,15 10,49 9,68 -2,30 -2,28 0,56 2,19 1,11 -2,19l7 4 -1 17c-2,4 -1,2 -3,4 -3,-2 -3,3 -3,-14l-2 -18c0,-8 -1,-28 -4,-33l8 90c1,-7 -1,-16 -1,-18 1,-5 -1,-3 4,-3 2,8 -8,40 1,43 -5,-6 -1,-14 0,-23 3,-26 3,-46 6,-77 3,-28 7,-76 15,-101zm-38 194l-1 7 15 2c-4,-4 -5,-2 -12,-3 -1,-1 -1,-1 -1,-3 0,0 -1,-2 -1,-3zm23 -222c0,1 -2,-5 0,7 1,2 2,5 2,8 1,6 2,12 2,18 1,13 1,27 0,40l-8 80c-3,9 3,-6 -1,3l-2 2c2,-24 -3,-51 -1,-76 0,-14 4,-73 8,-82z"/>
   <path class="fil3" d="M3495 3482l8 1 7 -92c4,-49 0,-53 0,-86 5,5 4,8 7,11 6,-45 2,-59 4,-94 7,22 2,80 -1,106l-3 -12c-1,6 1,14 1,21l-1 60c0,11 -8,82 -12,85l4 3c7,-22 10,-118 11,-146 1,-23 8,-49 11,-73 2,-13 1,-23 2,-36 2,-11 4,-26 1,-35l-1 18c1,9 -7,58 -4,72 -7,-7 0,-19 -2,-40 -1,-2 -1,-4 -1,-5 0,-1 0,-2 0,-3 -1,-7 -2,-20 -4,-26 -2,-3 -1,-2 -2,-3l-1 24c0,0 0,1 0,1l0 7c-1,13 0,41 -2,57l-3 -16c0,-5 0,-10 -1,-15 0,-8 -1,-25 -5,-29l-2 28c0,0 0,4 0,4 1,6 -2,2 2,5l2 -20 4 47c-6,3 5,1 -3,0l-2 -1c-1,0 -1,0 -2,1 4,17 6,41 -2,59 0,-9 0,-15 0,-24 -3,7 1,17 -3,22 -3,-5 -2,-22 -3,-29 0,-17 -3,-12 6,-24l-1 31c1,-8 4,-56 3,-61 -3,22 0,13 -7,32 -3,-3 -2,-1 -3,-17 -1,-4 -1,-8 -1,-10 0,-6 1,-5 -2,-9l-7 198c0,10 -1,9 3,11 0,1 -6,8 2,1 -5,-2 3,-38 4,-45 1,-8 2,-16 3,-24 3,-18 6,-18 1,-25 -3,27 -6,53 -10,80 -4,-20 1,-161 6,-176 -2,6 2,35 2,47l3 50c1,-3 1,-5 1,-9 0,-1 0,-2 0,-4 0,0 0,0 -1,-1 0,-11 -2,-8 1,-10 4,-3 -3,16 1,25l6 -31c4,13 -6,100 -7,122 -2,1 -1,0 -4,1 0,0 -3,1 -3,1z"/>
   <path class="fil3" d="M3539 3248c1,20 -2,40 -1,60 1,16 -2,42 -4,60 -2,18 -13,109 -18,118l1 0c6,-11 17,-114 19,-134 3,-25 0,-40 7,-65 4,-15 11,-45 23,-51 -3,10 -6,17 -8,27 -2,11 1,15 -3,26 -4,10 -4,18 -4,29 0,4 0,9 0,13 0,10 -1,6 -2,14 4,-4 10,-29 26,-34 -4,11 -8,20 -12,31 -5,13 -6,23 -10,35l-8 47c3,-1 3,2 4,-10 2,-16 6,-28 4,-37 7,0 0,2 3,-3l10 -33c2,-5 4,-11 6,-17 3,-5 7,-13 8,-17 -18,-2 -21,18 -28,22 1,-11 0,-16 2,-26 1,-10 5,-14 5,-25 1,-16 -2,-2 4,-24 2,-7 5,-16 6,-24 -6,3 -7,4 -11,10 -10,15 -11,25 -15,39 -2,5 -1,5 -5,7 3,-7 3,-13 2,-21 0,0 0,-1 0,-1 0,-1 0,-1 0,-1 1,-10 3,-11 -1,-15zm-11 239l4 0c-4,-4 -2,1 -3,-7l3 -28c2,-29 4,-45 9,-74 3,-10 8,-24 8,-33 0,0 0,-1 -2,3 0,1 -1,2 -1,3 -1,3 -1,6 -2,9 -2,5 -3,11 -4,16 -6,28 -12,85 -12,111z"/>
   <path class="fil3" d="M4141 3400c-2,4 -1,0 -1,5 0,4 -1,0 1,3l0 -8c-2,-46 -2,-89 7,-134 4,-22 11,-44 14,-65 2,-21 3,-53 7,-71 0,27 1,40 -4,68 -4,24 -1,47 -5,70 -3,25 -4,44 -5,69 -1,25 -6,46 -9,70 3,-3 4,-10 5,-16l7 -74c0,-7 2,-14 2,-21l4 -38c1,-8 0,-11 0,-17 1,-18 2,-42 6,-59 3,-11 2,-27 2,-37 0,-7 0,-11 0,-18 -1,-13 -1,-12 -4,-15 -1,8 0,10 -1,17 -4,53 -8,78 -20,128 -2,6 -2,12 -3,19 -2,16 -7,37 -7,56 0,11 1,23 1,34l1 30c1,5 -2,1 2,4z"/>
   <path class="fil3" d="M4053 3341l9 -106c3,4 2,12 2,19 1,7 1,15 1,21l-3 80c4,-2 3,-15 4,-20l1 -56c0,-5 3,-1 -2,-4 6,-13 -1,-45 1,-64l-2 2c-4,7 -11,87 -11,95 1,9 -2,18 -2,25 -1,11 -1,5 2,8z"/>
   <path class="fil3" d="M3868 3523l10 -1c3,-7 3,-12 4,-21 -1,1 -1,1 -1,1l-2 5c0,1 0,3 -1,5 0,4 -1,7 -2,11 0,0 -4,-1 -4,-1 -4,0 -2,0 -4,1z"/>
   <path class="fil3" d="M3615 3322l1 8 1 1 0 3 1 1 -1 4 2 2 2 14c0,1 0,1 0,1 0,1 0,1 1,2 1,-9 5,-47 2,-52 -2,1 -1,-1 -3,2 -1,2 -1,2 -2,4 -2,3 -2,7 -4,10z"/>
   <path class="fil3" d="M4067 3416c-3,-7 1,-43 1,-54 1,-17 -1,-35 -1,-52 -1,-29 1,-85 8,-112 16,51 -2,159 -6,218 0,0 0,-1 0,-1l2 -4c0,-2 1,-6 1,-8l8 -77c1,-12 0,-18 2,-31 1,-7 0,-8 0,-13l0 -44c0,-11 -1,-17 -2,-27 0,-7 -1,-20 -6,-24 -5,50 -12,93 -9,143 2,28 1,57 -2,86l4 0z"/>
   <path class="fil3" d="M3999 3336c10,-8 7,-23 8,-35 3,1 4,2 8,3 4,-3 5,-4 10,-10l1 3 1 10c1,29 0,36 -15,38l-11 2c0,0 1,0 1,1 0,2 12,-1 18,0 -1,20 -11,50 -10,68l3 -5c1,-2 1,-4 1,-6l8 -42c1,-11 9,-40 6,-52 -1,-5 2,0 -1,-4 0,-2 1,-3 1,-6 0,-4 1,-1 -2,-4l2 -9c-4,1 -3,1 -6,5 -3,3 -5,4 -7,7 -7,-2 -1,-2 -8,-4 -1,7 -1,20 -2,23 -1,8 -8,13 -6,17z"/>
   <path class="fil3" d="M4100 3301c-3,9 -3,43 -5,59 -2,22 -2,39 -4,60 1,3 -1,1 1,0 0,-16 3,-43 5,-61 1,-18 3,-40 3,-58 -1,-24 -5,-40 -8,-62 22,12 20,57 20,80 -1,31 -5,72 -12,102 4,-4 2,-3 4,-11 1,-5 2,-7 2,-13l8 -82c1,-17 -1,-64 -15,-76 -4,-3 -5,-4 -11,-5 3,9 5,22 7,32 0,7 1,11 2,17l1 14c1,5 -1,2 2,4z"/>
   <path class="fil3" d="M4148 3332c2,-37 27,-192 50,-206l-9 39c4,-1 1,2 4,-9 2,-11 6,-22 7,-35 -7,1 -11,10 -14,17 -7,16 -7,22 -11,37l-13 55c-3,14 -18,87 -16,99 1,4 -1,0 2,3z"/>
   <path class="fil3" d="M3865 3498c4,-2 1,2 3,-4l10 -69c1,-9 0,-14 1,-24l-7 18c0,0 0,0 0,1l-3 6c1,-10 3,-21 3,-31l1 -22c0,-1 0,-3 0,-4 -1,-4 2,0 -1,-3l-6 80 9 -32c0,27 -6,58 -10,84z"/>
   <path class="fil3" d="M3977 3338l4 -14c1,1 1,0 2,3 4,15 3,73 2,87l-14 -2c1,1 -1,1 2,1l14 2c4,-42 -3,-102 -3,-103l-1 -1c-1,5 -5,15 -6,27z"/>
   <path class="fil3" d="M3726 3449l0 -44c13,20 7,82 5,86 -5,-1 -1,2 -4,-4l-1 6 9 1 3 -32c4,-15 -1,-53 1,-73 -4,5 -3,6 -4,13 1,-1 0,-50 1,-59 2,-22 4,-44 7,-66l4 18c2,-6 -1,-11 0,-19 0,-15 8,-59 6,-63 2,9 3,57 1,69 -1,2 -3,15 -6,15 0,0 0,0 0,0 0,0 -1,0 -1,0 0,0 -1,-1 -1,0 2,12 -8,77 -11,94 5,-5 4,-2 5,-19 1,-17 3,-31 6,-48l3 -8c0,0 0,0 0,-1l2 0c17,13 9,15 16,20 1,-8 -4,-10 -5,-18 0,-7 2,-14 0,-20l-2 19c-4,-4 -5,-4 -10,-7 1,-10 4,-17 6,-26 3,-10 4,-19 5,-29 2,-20 3,-44 6,-63 8,28 -11,86 -5,106 2,-15 14,-92 30,-99 -3,13 -8,29 -9,42 -1,9 1,11 -3,21 -9,27 0,73 -6,111 -3,-6 -3,-13 -3,-19 -1,-4 -2,-14 -4,-18 -1,5 1,10 2,16 0,6 1,12 1,16 0,10 -2,28 1,35 4,-16 -2,-16 10,-26 1,9 1,18 0,27 0,13 1,19 -11,22 1,-7 3,-17 1,-23l-11 95 1 0c6,-26 6,-50 8,-63 1,-7 -1,-4 5,-5 3,8 -8,53 -10,67 4,-3 1,3 5,-6l11 -57c2,-15 3,-20 3,-34l0 -24c0,-7 2,-3 -2,-7l-5 8c4,-39 0,-73 2,-94 1,-9 3,-15 5,-22 2,-9 1,-18 2,-24 2,-13 9,-30 10,-45 -7,3 -6,3 -10,10 -3,6 -5,10 -8,16 -3,10 -8,24 -9,38l-2 -1c3,-27 6,-33 4,-64 -1,-11 1,-14 -4,-18 -1,16 -1,29 -3,47 -2,16 -4,33 -5,49l-2 0c0,-3 1,-6 1,-10 0,-1 0,-3 0,-4 -1,-2 0,-3 0,-5l-2 -36c0,-7 1,-12 -1,-17l-8 72c-5,2 0,-3 -4,-1 -3,24 -7,51 -9,75l-1 53c1,5 2,12 1,17 0,-1 0,-2 0,-1l-6 -17c-2,-3 -1,-1 -2,-2 0,5 -3,47 0,54 1,5 -3,-1 1,3zm23 47c2,1 0,0 3,0 1,0 3,0 5,0 -8,-4 -4,2 -5,-4 2,-29 4,-59 6,-87 0,-16 2,-58 -4,-75 0,0 -1,-1 -1,-1 0,0 0,-1 0,-1 -1,10 2,21 2,31l-1 33c0,25 -7,48 -8,72 3,-16 5,-20 7,-38 0,-2 1,-5 1,-6l-5 76zm-13 -2c2,3 0,3 3,1 2,-9 0,-30 0,-31l-1 -2c-3,10 -1,22 -2,32z"/>
   <path class="fil3" d="M3325 3130c2,14 1,31 1,45 -1,15 0,29 1,44 2,18 2,37 1,55 0,12 -7,53 -4,59 4,-60 14,-141 13,-199l-5 -58c8,8 14,23 15,39l1 55c-2,48 -3,63 -9,111l-7 55c-1,17 -1,35 -2,53 0,-6 3,-27 4,-35 0,-13 0,-23 2,-36 10,-54 8,-126 27,-177 4,-12 6,-16 14,-24l-2 5c-1,9 -4,19 -6,28 -3,13 0,18 -4,30 -7,21 -4,37 -5,58 2,28 -17,66 -16,90 3,-9 5,-22 7,-30 8,-31 12,-52 23,-85l2 -7c-3,15 -5,36 -8,53 -3,18 -7,36 -10,53 -4,23 -23,85 -22,101l1 3 43 -221c1,-3 1,-4 0,-7 -2,6 -5,11 -4,18 -4,1 -1,-2 -2,2 -1,6 -1,1 0,5 -4,2 -2,-1 -6,13 -2,6 -3,8 -4,15l-2 -2c0,-1 -1,-1 -1,-1 0,0 -1,0 -1,0 3,-8 3,-21 2,-30 0,-15 8,-31 8,-41 0,-27 8,-32 5,-45 6,0 2,1 4,-3 0,-1 0,-6 0,-7 -10,4 -14,17 -18,27 -3,9 -8,25 -9,37l-2 0c2,-12 2,-4 -2,-6 4,-8 4,-39 2,-49 -1,-6 1,-4 -3,-6 3,-7 -1,-43 -19,-46 3,7 4,29 5,38 3,37 2,86 -2,125l-1 0c1,-16 -1,-12 -3,-13 3,-8 1,-15 1,-23l0 -46c0,-5 0,-7 0,-10 0,-3 0,-2 0,-5 -2,-5 0,-2 -3,-5 3,-8 -2,-32 -6,-37l0 24c1,9 -1,4 3,7 -3,7 -2,6 -2,13 0,0 0,5 0,5 1,6 -2,3 3,5 -2,4 -2,2 -3,7 0,11 -1,3 3,5 -4,9 -12,121 -11,137 0,19 2,40 6,59 1,10 3,17 3,28 1,8 -2,26 2,32 5,-16 -1,-45 -3,-62 -3,-22 -5,-39 -6,-61 0,-49 8,-74 8,-101 0,-10 0,-22 1,-32l0 -12 -1 -23 -1 -16 4 22z"/>
   <path class="fil3" d="M3663 3143c-7,-1 0,-2 -2,2 -3,6 -8,71 -9,80 -4,-5 -2,-11 -5,-22 -2,-7 -3,-14 -10,-17 -1,5 0,15 0,20l0 16c2,5 -1,0 3,4l-1 -26c0,-6 0,-6 2,-8 2,13 9,27 8,44 -2,16 -4,36 -6,53 -4,34 -15,70 -11,104 3,-20 2,-41 6,-62 3,-21 7,-40 9,-61 2,-23 5,-41 9,-63 4,-21 2,-41 7,-64 1,-3 1,-6 2,-9l4 -9c-3,25 -8,52 -9,77 -1,24 2,46 0,70 -5,51 -8,78 -22,127 3,-10 9,-28 10,-36 2,34 -19,112 -20,131 2,-2 1,-1 3,-3 3,-8 10,-56 10,-63l18 3c0,13 -25,50 -26,64 7,-4 17,-32 20,-39 4,-7 7,-13 10,-20 3,-6 8,-14 7,-22 4,0 1,4 4,-5 2,-4 1,-6 1,-10 4,-1 1,1 3,-4 0,-1 0,-5 0,-6l-3 10 -5 15c-2,6 -4,11 -8,12 -5,1 -15,0 -20,-2 0,-3 0,-4 1,-7 1,-2 0,0 2,-2 2,-2 0,0 3,-3 2,-2 4,-7 7,-11l4 -17c3,1 3,6 10,3 2,-1 9,-5 10,-6l-2 7c4,-1 3,3 4,-13l-14 9c-4,-4 -1,-4 -8,-5 -2,6 -6,14 -4,22 -8,2 -2,4 -10,9 3,-24 5,-49 9,-70l8 -60c1,-12 1,-6 -2,-8 8,-18 1,-60 3,-80 2,-32 7,-58 10,-86 -5,3 -3,2 -7,16 -2,7 -4,12 -3,21z"/>
   <path class="fil3" d="M3608 3304c3,6 -2,43 -2,52 -1,0 -1,-1 -1,-1 0,-1 0,-1 0,-1l-3 -15c-2,3 1,26 1,34 2,28 -4,93 -11,118l-1 0c1,2 0,2 1,0 6,2 3,1 5,0 4,-26 10,-54 20,-80 2,13 0,45 -2,61 -1,10 -3,15 2,20 1,-14 3,-98 1,-105 -2,20 -6,27 -11,45 -4,16 -5,30 -10,45 1,-17 4,-48 8,-63 2,-10 11,-53 11,-59 0,0 -1,0 -2,3l-7 33c-2,-32 7,-139 13,-172l2 49c0,1 0,1 0,2 1,-15 0,-29 -1,-44l0 -9c0,-16 2,-12 -2,-15l-11 102zm30 -78c-1,11 -4,16 -4,26 0,9 2,12 1,24 -2,12 -7,34 -12,45 0,0 -1,0 -1,1l1 -46c-1,-6 1,-3 -3,-6l-1 63c-1,8 -4,15 -3,22 3,-4 2,-10 6,-17 -2,12 -7,39 -4,48 3,-28 6,-53 13,-80 13,-48 2,-37 8,-68 1,-8 0,-8 0,-9l-1 -3zm-36 108c-2,1 -4,6 -1,3l1 -3zm-1 -5c-4,3 -5,6 0,3l0 -3zm-2 -8c-5,-7 -9,-15 -19,-17 3,8 0,6 5,8 -3,8 0,14 1,23 1,8 2,14 3,21 2,26 0,31 0,42 0,7 -1,2 2,6 0,-17 2,-32 0,-49 -1,-16 -4,-29 -6,-43l0 -2c3,3 5,5 8,9 7,12 2,11 7,9l-1 -7z"/>
   <path class="fil3" d="M3873 3318c0,-2 1,-7 1,-9 0,-5 0,-5 -2,-8 -2,17 -4,27 -6,44l-2 -1c2,-16 -1,-34 -3,-50 -1,-6 -1,-10 -4,-15l-7 60 -5 -26c-1,-4 -2,-8 -3,-12l-3 -8c-1,-3 0,-1 -1,-3 -3,25 -1,46 -2,69 -2,-2 -2,-3 -5,-5 -2,-2 -4,-3 -5,-5 -1,10 8,43 3,59 -1,5 -5,10 -7,18 -6,29 -6,43 8,66 3,5 0,4 6,7 -1,-12 -7,-7 -12,-30 -4,-13 -2,-26 1,-40 7,-29 14,-8 4,-72 12,11 2,16 7,32l3 15c0,0 0,0 0,1l1 2c1,-5 0,-7 0,-12 -4,-24 -2,-68 -1,-91 9,16 10,49 9,68 -2,30 -2,29 0,56 1,19 1,11 -2,19l7 4 -2 17c-1,4 0,2 -2,4 -3,-2 -3,3 -3,-14l-2 -17c0,-9 -1,-28 -4,-34l8 91c1,-7 -1,-17 -1,-19 1,-5 -1,-3 3,-3 3,9 -7,40 1,43 -4,-6 0,-14 1,-23 2,-26 3,-46 6,-77 3,-28 7,-76 15,-101zm-38 194l-1 7 15 2c-5,-4 -5,-2 -12,-2 -1,-2 -1,-1 -2,-4 0,0 0,-2 0,-3zm23 -221c0,0 -2,-5 0,6 1,3 1,5 2,8 1,6 1,12 2,18 1,14 1,27 0,40l-8 80c-3,9 3,-6 -1,3l-2 2c2,-24 -3,-50 -1,-76 0,-13 4,-73 8,-81z"/>
   <path class="fil3" d="M3479 3480l7 1 8 -92c4,-48 -1,-52 0,-86 5,5 3,8 7,11 6,-44 2,-58 4,-94 7,22 2,80 -1,106l-3 -12c-1,6 1,14 1,21l-1 61c-1,10 -8,81 -12,84l4 3c7,-22 9,-117 11,-146 1,-23 8,-49 11,-72 2,-14 0,-24 2,-37 2,-11 4,-26 1,-35l-1 18c1,9 -7,58 -4,72 -7,-7 0,-19 -3,-40 0,-2 0,-4 0,-5 0,-1 0,-2 0,-2 -1,-7 -2,-20 -4,-27 -2,-3 -2,-2 -3,-3l0 24c0,1 0,1 0,1l0 7c-1,13 0,41 -2,57l-3 -16c0,-5 0,-10 -1,-15 -1,-7 -1,-25 -6,-29l-1 28c0,1 0,5 0,5 1,5 -2,1 2,4l2 -20 3 47c-5,3 6,1 -2,0l-3 0c0,-1 0,0 -1,0 3,17 6,41 -2,59 0,-9 0,-15 0,-24 -3,8 1,17 -3,23 -3,-6 -2,-23 -3,-30 0,-16 -3,-11 6,-24l-1 31c1,-8 4,-56 2,-61 -2,22 1,14 -6,32 -4,-3 -3,-1 -4,-17 0,-4 0,-8 0,-10 0,-6 0,-5 -2,-9l-7 199c0,9 -1,8 3,10 0,2 -6,8 2,1 -5,-2 3,-38 4,-45 1,-8 2,-16 3,-24 3,-18 6,-17 1,-25 -3,27 -6,53 -10,80 -4,-19 1,-160 5,-176 -1,7 3,35 3,47l3 50c0,-3 1,-5 1,-8 0,-2 0,-3 -1,-4 0,-1 0,-1 0,-2 0,-11 -2,-7 1,-9 4,-3 -3,15 1,25l5 -32c4,13 -5,101 -7,122 -1,1 0,0 -3,1 0,0 -3,1 -3,1z"/>
   <path class="fil3" d="M3523 3246c1,20 -2,40 -1,60 0,16 -2,42 -4,60 -3,19 -13,109 -18,118l1 0c6,-11 17,-114 19,-133 3,-25 0,-41 7,-66 4,-14 10,-45 22,-50 -2,9 -5,16 -7,26 -2,11 1,15 -4,26 -3,11 -3,19 -3,29 0,5 0,9 0,13 0,10 -2,7 -2,14 4,-4 9,-29 26,-33 -4,10 -8,20 -12,31 -5,12 -6,23 -10,34l-8 47c3,-1 3,2 4,-10 2,-16 6,-27 4,-37 7,0 0,2 3,-2l10 -34c2,-5 4,-11 6,-17 3,-5 7,-13 8,-17 -18,-1 -21,18 -28,22 1,-10 0,-15 2,-26 1,-9 5,-14 5,-25 1,-15 -2,-2 4,-23 2,-8 5,-17 6,-24 -7,2 -7,4 -11,9 -10,15 -11,25 -15,39 -2,5 -1,5 -5,8 3,-8 3,-14 2,-22 0,0 0,0 0,-1 0,0 0,-1 0,-1 0,-10 3,-11 -1,-15zm-11 239l4 1c-4,-5 -2,0 -3,-8l3 -28c2,-29 4,-45 9,-74 2,-10 8,-23 8,-33 0,1 0,0 -2,3 0,1 -1,3 -1,3 -1,3 -2,6 -2,9 -2,6 -3,11 -4,16 -6,28 -12,86 -12,111z"/>
   <path class="fil3" d="M4125 3398c-2,4 -1,0 -1,5 0,4 -1,1 1,3l0 -8c-2,-46 -2,-89 7,-134 4,-21 11,-44 14,-65 2,-21 3,-53 7,-71 0,27 1,40 -4,68 -4,24 -1,47 -5,71 -3,25 -4,44 -5,68 -1,25 -6,46 -9,70 3,-2 4,-10 5,-16l6 -74c1,-6 2,-14 3,-20l4 -38c1,-9 0,-12 0,-18 1,-18 2,-42 6,-59 3,-11 2,-27 2,-36 0,-8 0,-12 -1,-19 -1,-13 0,-12 -3,-15 -1,8 0,10 -1,17 -4,53 -8,79 -20,128 -2,6 -2,13 -3,19 -2,16 -7,37 -7,56 0,11 1,23 1,34l1 30c1,5 -2,1 2,4z"/>
   <path class="fil3" d="M4037 3339l9 -106c3,4 2,12 2,20 1,7 1,14 1,21l-3 79c4,-2 3,-15 4,-20l1 -56c-1,-5 2,-1 -2,-3 5,-14 -1,-46 1,-65l-2 2c-4,8 -11,87 -11,95 1,9 -2,18 -2,26 -1,10 -1,5 2,7z"/>
   <path class="fil3" d="M3852 3521l9 -1c4,-7 4,-11 5,-21 -1,1 -1,1 -1,2l-2 4c0,2 -1,4 -1,5 0,4 -1,8 -2,12 0,0 -4,-1 -4,-1 -4,-1 -2,0 -4,0z"/>
   <path class="fil3" d="M3599 3321l1 7 1 1 0 3 1 2 -1 3 1 2 3 15c0,0 0,0 0,1 0,0 0,1 1,1 0,-9 5,-46 2,-52 -2,1 -1,0 -3,2 -2,2 -1,2 -2,4 -2,4 -2,7 -4,11z"/>
   <path class="fil3" d="M4067 3416c-3,-7 1,-43 1,-54 1,-17 -1,-35 -1,-52 -1,-29 1,-85 8,-112 16,51 -2,159 -6,218 0,0 0,-1 0,-1l2 -4c0,-2 1,-6 1,-8l8 -77c1,-12 0,-18 2,-31 1,-7 0,-8 0,-13l0 -44c0,-11 -1,-17 -2,-27 0,-7 -1,-20 -6,-24 -5,50 -12,93 -9,143 2,28 1,57 -2,86l4 0z"/>
   <path class="fil3" d="M3999 3336c10,-8 7,-23 8,-35 3,1 4,2 8,3 4,-3 5,-4 10,-10l1 3 1 10c1,29 0,36 -15,38l-11 2c0,0 1,0 1,1 0,2 12,-1 18,0 -1,20 -11,50 -10,68l3 -5c1,-2 1,-4 1,-6l8 -42c1,-11 9,-40 6,-52 -1,-5 2,0 -1,-4 0,-2 1,-3 1,-6 0,-4 1,-1 -2,-4l2 -9c-4,1 -3,1 -6,5 -3,3 -5,4 -7,7 -7,-2 -1,-2 -8,-4 -1,7 -1,20 -2,23 -1,8 -8,13 -6,17z"/>
   <path class="fil3" d="M4100 3301c-3,9 -3,43 -5,59 -2,22 -2,39 -4,60 1,3 -1,1 1,0 0,-16 3,-43 5,-61 1,-18 3,-40 3,-58 -1,-24 -5,-40 -8,-62 22,12 20,57 20,80 -1,31 -5,72 -12,102 4,-4 2,-3 4,-11 1,-5 2,-7 2,-13l8 -82c1,-17 -1,-64 -15,-76 -4,-3 -5,-4 -11,-5 3,9 5,22 7,32 0,7 1,11 2,17l1 14c1,5 -1,2 2,4z"/>
   <path class="fil3" d="M4148 3332c2,-37 27,-192 50,-206l-9 39c4,-1 1,2 4,-9 2,-11 6,-22 7,-35 -7,1 -11,10 -14,17 -7,16 -7,22 -11,37l-13 55c-3,14 -18,87 -16,99 1,4 -1,0 2,3z"/>
   <path class="fil3" d="M3865 3498c4,-2 1,2 3,-4l10 -69c1,-9 0,-14 1,-24l-7 18c0,0 0,0 0,1l-3 6c1,-10 3,-21 3,-31l1 -22c0,-1 0,-3 0,-4 -1,-4 2,0 -1,-3l-6 80 9 -32c0,27 -6,58 -10,84z"/>
   <path class="fil3" d="M3977 3338l4 -14c1,1 1,0 2,3 4,15 3,73 2,87l-14 -2c1,1 -1,1 2,1l14 2c4,-42 -3,-102 -3,-103l-1 -1c-1,5 -5,15 -6,27z"/>
   <path class="fil3" d="M3726 3449l0 -44c13,20 7,82 5,86 -5,-1 -1,2 -4,-4l-1 6 9 1 3 -32c4,-15 -1,-53 1,-73 -4,5 -3,6 -4,13 1,-1 0,-50 1,-59 2,-22 4,-44 7,-66l4 18c2,-6 -1,-11 0,-19 0,-15 8,-59 6,-63 2,9 3,57 1,69 -1,2 -3,15 -6,15 0,0 0,0 0,0 0,0 -1,0 -1,0 0,0 -1,-1 -1,0 2,12 -8,77 -11,94 5,-5 4,-2 5,-19 1,-17 3,-31 6,-48l3 -8c0,0 0,0 0,-1l2 0c17,13 9,15 16,20 1,-8 -4,-10 -5,-18 0,-7 2,-14 0,-20l-2 19c-4,-4 -5,-4 -10,-7 1,-10 4,-17 6,-26 3,-10 4,-19 5,-29 2,-20 3,-44 6,-63 8,28 -11,86 -5,106 2,-15 14,-92 30,-99 -3,13 -8,29 -9,42 -1,9 1,11 -3,21 -9,27 0,73 -6,111 -3,-6 -3,-13 -3,-19 -1,-4 -2,-14 -4,-18 -1,5 1,10 2,16 0,6 1,12 1,16 0,10 -2,28 1,35 4,-16 -2,-16 10,-26 1,9 1,18 0,27 0,13 1,19 -11,22 1,-7 3,-17 1,-23l-11 95 1 0c6,-26 6,-50 8,-63 1,-7 -1,-4 5,-5 3,8 -8,53 -10,67 4,-3 1,3 5,-6l11 -57c2,-15 3,-20 3,-34l0 -24c0,-7 2,-3 -2,-7l-5 8c4,-39 0,-73 2,-94 1,-9 3,-15 5,-22 2,-9 1,-18 2,-24 2,-13 9,-30 10,-45 -7,3 -6,3 -10,10 -3,6 -5,10 -8,16 -3,10 -8,24 -9,38l-2 -1c3,-27 6,-33 4,-64 -1,-11 1,-14 -4,-18 -1,16 -1,29 -3,47 -2,16 -4,33 -5,49l-2 0c0,-3 1,-6 1,-10 0,-1 0,-3 0,-4 -1,-2 0,-3 0,-5l-2 -36c0,-7 1,-12 -1,-17l-8 72c-5,2 0,-3 -4,-1 -3,24 -7,51 -9,75l-1 53c1,5 2,12 1,17 0,-1 0,-2 0,-1l-6 -17c-2,-3 -1,-1 -2,-2 0,5 -3,47 0,54 1,5 -3,-1 1,3zm23 47c2,1 0,0 3,0 1,0 3,0 5,0 -8,-4 -4,2 -5,-4 2,-29 4,-59 6,-87 0,-16 2,-58 -4,-75 0,0 -1,-1 -1,-1 0,0 0,-1 0,-1 -1,10 2,21 2,31l-1 33c0,25 -7,48 -8,72 3,-16 5,-20 7,-38 0,-2 1,-5 1,-6l-5 76zm-13 -2c2,3 0,3 3,1 2,-9 0,-30 0,-31l-1 -2c-3,10 -1,22 -2,32z"/>
   <path class="fil3" d="M3325 3130c2,14 1,31 1,45 -1,15 0,29 1,44 2,18 2,37 1,55 0,12 -7,53 -4,59 4,-60 14,-141 13,-199l-5 -58c8,8 14,23 15,39l1 55c-2,48 -3,63 -9,111l-7 55c-1,17 -1,35 -2,53 0,-6 3,-27 4,-35 0,-13 0,-23 2,-36 10,-54 8,-126 27,-177 4,-12 6,-16 14,-24l-2 5c-1,9 -4,19 -6,28 -3,13 0,18 -4,30 -7,21 -4,37 -5,58 2,28 -17,66 -16,90 3,-9 5,-22 7,-30 8,-31 12,-52 23,-85l2 -7c-3,15 -5,36 -8,53 -3,18 -7,36 -10,53 -4,23 -23,85 -22,101l1 3 43 -221c1,-3 1,-4 0,-7 -2,6 -5,11 -4,18 -4,1 -1,-2 -2,2 -1,6 -1,1 0,5 -4,2 -2,-1 -6,13 -2,6 -3,8 -4,15l-2 -2c0,-1 -1,-1 -1,-1 0,0 -1,0 -1,0 3,-8 3,-21 2,-30 0,-15 8,-31 8,-41 0,-27 8,-32 5,-45 6,0 2,1 4,-3 0,-1 0,-6 0,-7 -10,4 -14,17 -18,27 -3,9 -8,25 -9,37l-2 0c2,-12 2,-4 -2,-6 4,-8 4,-39 2,-49 -1,-6 1,-4 -3,-6 3,-7 -1,-43 -19,-46 3,7 4,29 5,38 3,37 2,86 -2,125l-1 0c1,-16 -1,-12 -3,-13 3,-8 1,-15 1,-23l0 -46c0,-5 0,-7 0,-10 0,-3 0,-2 0,-5 -2,-5 0,-2 -3,-5 3,-8 -2,-32 -6,-37l0 24c1,9 -1,4 3,7 -3,7 -2,6 -2,13 0,0 0,5 0,5 1,6 -2,3 3,5 -2,4 -2,2 -3,7 0,11 -1,3 3,5 -4,9 -12,121 -11,137 0,19 2,40 6,59 1,10 3,17 3,28 1,8 -2,26 2,32 5,-16 -1,-45 -3,-62 -3,-22 -5,-39 -6,-61 0,-49 8,-74 8,-101 0,-10 0,-22 1,-32l0 -12 -1 -23 -1 -16 4 22z"/>
   <path class="fil3" d="M3663 3143c-7,-1 0,-2 -2,2 -3,6 -8,71 -9,80 -4,-5 -2,-11 -5,-22 -2,-7 -3,-14 -10,-17 -1,5 0,15 0,20l0 16c2,5 -1,0 3,4l-1 -26c0,-6 0,-6 2,-8 2,13 9,27 8,44 -2,16 -4,36 -6,53 -4,34 -15,70 -11,104 3,-20 2,-41 6,-62 3,-21 7,-40 9,-61 2,-23 5,-41 9,-63 4,-21 2,-41 7,-64 1,-3 1,-6 2,-9l4 -9c-3,25 -8,52 -9,77 -1,24 2,46 0,70 -5,51 -8,78 -22,127 3,-10 9,-28 10,-36 2,34 -19,112 -20,131 2,-2 1,-1 3,-3 3,-8 10,-56 10,-63l18 3c0,13 -25,50 -26,64 7,-4 17,-32 20,-39 4,-7 7,-13 10,-20 3,-6 8,-14 7,-22 4,0 1,4 4,-5 2,-4 1,-6 1,-10 4,-1 1,1 3,-4 0,-1 0,-5 0,-6l-3 10 -5 15c-2,6 -4,11 -8,12 -5,1 -15,0 -20,-2 0,-3 0,-4 1,-7 1,-2 0,0 2,-2 2,-2 0,0 3,-3 2,-2 4,-7 7,-11l4 -17c3,1 3,6 10,3 2,-1 9,-5 10,-6l-2 7c4,-1 3,3 4,-13l-14 9c-4,-4 -1,-4 -8,-5 -2,6 -6,14 -4,22 -8,2 -2,4 -10,9 3,-24 5,-49 9,-70l8 -60c1,-12 1,-6 -2,-8 8,-18 1,-60 3,-80 2,-32 7,-58 10,-86 -5,3 -3,2 -7,16 -2,7 -4,12 -3,21z"/>
   <path class="fil3" d="M3608 3304c3,6 -2,43 -2,52 -1,0 -1,-1 -1,-1 0,-1 0,-1 0,-1l-3 -15c-2,3 1,26 1,34 2,28 -4,93 -11,118l-1 0c1,2 0,2 1,0 6,2 3,1 5,0 4,-26 10,-54 20,-80 2,13 0,45 -2,61 -1,10 -3,15 2,20 1,-14 3,-98 1,-105 -2,20 -6,27 -11,45 -4,16 -5,30 -10,45 1,-17 4,-48 8,-63 2,-10 11,-53 11,-59 0,0 -1,0 -2,3l-7 33c-2,-32 7,-139 13,-172l2 49c0,1 0,1 0,2 1,-15 0,-29 -1,-44l0 -9c0,-16 2,-12 -2,-15l-11 102zm30 -78c-1,11 -4,16 -4,26 0,9 2,12 1,24 -2,12 -7,34 -12,45 0,0 -1,0 -1,1l1 -46c-1,-6 1,-3 -3,-6l-1 63c-1,8 -4,15 -3,22 3,-4 2,-10 6,-17 -2,12 -7,39 -4,48 3,-28 6,-53 13,-80 13,-48 2,-37 8,-68 1,-8 0,-8 0,-9l-1 -3zm-36 108c-2,1 -4,6 -1,3l1 -3zm-1 -5c-4,3 -5,6 0,3l0 -3zm-2 -8c-5,-7 -9,-15 -19,-17 3,8 0,6 5,8 -3,8 0,14 1,23 1,8 2,14 3,21 2,26 0,31 0,42 0,7 -1,2 2,6 0,-17 2,-32 0,-49 -1,-16 -4,-29 -6,-43l0 -2c3,3 5,5 8,9 7,12 2,11 7,9l-1 -7z"/>
   <path class="fil3" d="M3873 3318c0,-2 1,-7 1,-9 0,-5 0,-5 -2,-8 -2,17 -4,27 -6,44l-2 -1c2,-16 -1,-34 -3,-50 -1,-6 -1,-10 -4,-15l-7 60 -5 -26c-1,-4 -2,-8 -3,-12l-3 -8c-1,-3 0,-1 -1,-3 -3,25 -1,46 -2,69 -2,-2 -2,-3 -5,-5 -2,-2 -4,-3 -5,-5 -1,10 8,43 3,59 -1,5 -5,10 -7,18 -6,29 -6,43 8,66 3,5 0,4 6,7 -1,-12 -7,-7 -12,-30 -4,-13 -2,-26 1,-40 7,-29 14,-8 4,-72 12,11 2,16 7,32l3 15c0,0 0,0 0,1l1 2c1,-5 0,-7 0,-12 -4,-24 -2,-68 -1,-91 9,16 10,49 9,68 -2,30 -2,29 0,56 1,19 1,11 -2,19l7 4 -2 17c-1,4 0,2 -2,4 -3,-2 -3,3 -3,-14l-2 -17c0,-9 -1,-28 -4,-34l8 91c1,-7 -1,-17 -1,-19 1,-5 -1,-3 3,-3 3,9 -7,40 1,43 -4,-6 0,-14 1,-23 2,-26 3,-46 6,-77 3,-28 7,-76 15,-101zm-38 194l-1 7 15 2c-5,-4 -5,-2 -12,-2 -1,-2 -1,-1 -2,-4 0,0 0,-2 0,-3zm23 -221c0,0 -2,-5 0,6 1,3 1,5 2,8 1,6 1,12 2,18 1,14 1,27 0,40l-8 80c-3,9 3,-6 -1,3l-2 2c2,-24 -3,-50 -1,-76 0,-13 4,-73 8,-81z"/>
   <path class="fil3" d="M3479 3480l7 1 8 -92c4,-48 -1,-52 0,-86 5,5 3,8 7,11 6,-44 2,-58 4,-94 7,22 2,80 -1,106l-3 -12c-1,6 1,14 1,21l-1 61c-1,10 -8,81 -12,84l4 3c7,-22 9,-117 11,-146 1,-23 8,-49 11,-72 2,-14 0,-24 2,-37 2,-11 4,-26 1,-35l-1 18c1,9 -7,58 -4,72 -7,-7 0,-19 -3,-40 0,-2 0,-4 0,-5 0,-1 0,-2 0,-2 -1,-7 -2,-20 -4,-27 -2,-3 -2,-2 -3,-3l0 24c0,1 0,1 0,1l0 7c-1,13 0,41 -2,57l-3 -16c0,-5 0,-10 -1,-15 -1,-7 -1,-25 -6,-29l-1 28c0,1 0,5 0,5 1,5 -2,1 2,4l2 -20 3 47c-5,3 6,1 -2,0l-3 0c0,-1 0,0 -1,0 3,17 6,41 -2,59 0,-9 0,-15 0,-24 -3,8 1,17 -3,23 -3,-6 -2,-23 -3,-30 0,-16 -3,-11 6,-24l-1 31c1,-8 4,-56 2,-61 -2,22 1,14 -6,32 -4,-3 -3,-1 -4,-17 0,-4 0,-8 0,-10 0,-6 0,-5 -2,-9l-7 199c0,9 -1,8 3,10 0,2 -6,8 2,1 -5,-2 3,-38 4,-45 1,-8 2,-16 3,-24 3,-18 6,-17 1,-25 -3,27 -6,53 -10,80 -4,-19 1,-160 5,-176 -1,7 3,35 3,47l3 50c0,-3 1,-5 1,-8 0,-2 0,-3 -1,-4 0,-1 0,-1 0,-2 0,-11 -2,-7 1,-9 4,-3 -3,15 1,25l5 -32c4,13 -5,101 -7,122 -1,1 0,0 -3,1 0,0 -3,1 -3,1z"/>
   <path class="fil3" d="M3523 3246c1,20 -2,40 -1,60 0,16 -2,42 -4,60 -3,19 -13,109 -18,118l1 0c6,-11 17,-114 19,-133 3,-25 0,-41 7,-66 4,-14 10,-45 22,-50 -2,9 -5,16 -7,26 -2,11 1,15 -4,26 -3,11 -3,19 -3,29 0,5 0,9 0,13 0,10 -2,7 -2,14 4,-4 9,-29 26,-33 -4,10 -8,20 -12,31 -5,12 -6,23 -10,34l-8 47c3,-1 3,2 4,-10 2,-16 6,-27 4,-37 7,0 0,2 3,-2l10 -34c2,-5 4,-11 6,-17 3,-5 7,-13 8,-17 -18,-1 -21,18 -28,22 1,-10 0,-15 2,-26 1,-9 5,-14 5,-25 1,-15 -2,-2 4,-23 2,-8 5,-17 6,-24 -7,2 -7,4 -11,9 -10,15 -11,25 -15,39 -2,5 -1,5 -5,8 3,-8 3,-14 2,-22 0,0 0,0 0,-1 0,0 0,-1 0,-1 0,-10 3,-11 -1,-15zm-11 239l4 1c-4,-5 -2,0 -3,-8l3 -28c2,-29 4,-45 9,-74 2,-10 8,-23 8,-33 0,1 0,0 -2,3 0,1 -1,3 -1,3 -1,3 -2,6 -2,9 -2,6 -3,11 -4,16 -6,28 -12,86 -12,111z"/>
   <path class="fil3" d="M4125 3398c-2,4 -1,0 -1,5 0,4 -1,1 1,3l0 -8c-2,-46 -2,-89 7,-134 4,-21 11,-44 14,-65 2,-21 3,-53 7,-71 0,27 1,40 -4,68 -4,24 -1,47 -5,71 -3,25 -4,44 -5,68 -1,25 -6,46 -9,70 3,-2 4,-10 5,-16l6 -74c1,-6 2,-14 3,-20l4 -38c1,-9 0,-12 0,-18 1,-18 2,-42 6,-59 3,-11 2,-27 2,-36 0,-8 0,-12 -1,-19 -1,-13 0,-12 -3,-15 -1,8 0,10 -1,17 -4,53 -8,79 -20,128 -2,6 -2,13 -3,19 -2,16 -7,37 -7,56 0,11 1,23 1,34l1 30c1,5 -2,1 2,4z"/>
   <path class="fil3" d="M4037 3339l9 -106c3,4 2,12 2,20 1,7 1,14 1,21l-3 79c4,-2 3,-15 4,-20l1 -56c-1,-5 2,-1 -2,-3 5,-14 -1,-46 1,-65l-2 2c-4,8 -11,87 -11,95 1,9 -2,18 -2,26 -1,10 -1,5 2,7z"/>
   <path class="fil3" d="M3852 3521l9 -1c4,-7 4,-11 5,-21 -1,1 -1,1 -1,2l-2 4c0,2 -1,4 -1,5 0,4 -1,8 -2,12 0,0 -4,-1 -4,-1 -4,-1 -2,0 -4,0z"/>
   <path class="fil3" d="M3599 3321l1 7 1 1 0 3 1 2 -1 3 1 2 3 15c0,0 0,0 0,1 0,0 0,1 1,1 0,-9 5,-46 2,-52 -2,1 -1,0 -3,2 -2,2 -1,2 -2,4 -2,4 -2,7 -4,11z"/>
   <path class="fil3" d="M4083 3418c-3,-7 1,-44 2,-55 0,-16 -1,-34 -2,-51 -1,-29 1,-85 8,-113 16,52 -2,160 -6,219 0,0 0,-1 0,-1l2 -5c0,-1 1,-5 1,-7l8 -77c1,-12 1,-19 2,-31 1,-7 0,-9 0,-13l1 -45c-1,-10 -2,-16 -3,-26 0,-7 -1,-20 -6,-24 -5,50 -11,93 -8,143 1,28 0,57 -3,85l4 1z"/>
   <path class="fil3" d="M4015 3338c10,-8 8,-24 9,-36 2,2 3,3 7,4 4,-4 6,-5 10,-10l1 3 1 10c1,29 0,36 -14,37l-12 3c0,0 1,0 1,0 1,3 12,0 18,0 0,20 -11,51 -10,69l3 -5c1,-3 1,-4 1,-7l8 -42c2,-10 9,-39 6,-52 -1,-4 2,0 -1,-3 1,-2 1,-3 1,-6 0,-4 1,-2 -2,-4l2 -9c-4,1 -3,1 -6,5 -3,3 -5,4 -7,7 -7,-3 -1,-3 -8,-4 -1,7 -1,20 -2,23 -1,7 -8,12 -6,17z"/>
   <path class="fil3" d="M4116 3303c-3,9 -3,42 -4,59 -3,22 -3,39 -5,60 1,2 -1,1 2,0 -1,-17 3,-44 4,-61 1,-18 3,-41 3,-58 -1,-25 -5,-41 -8,-62 22,12 20,56 20,80 -1,31 -5,72 -11,102 3,-4 1,-3 3,-11 1,-5 2,-8 2,-14l8 -81c1,-18 -1,-64 -15,-76 -4,-3 -5,-4 -11,-5 3,8 5,22 7,32 1,7 1,10 2,17l1 14c1,5 -1,1 2,4z"/>
   <path class="fil3" d="M4164 3334c2,-38 28,-192 50,-206l-9 39c4,-1 1,2 4,-10 2,-10 6,-22 8,-34 -8,1 -11,10 -15,17 -7,15 -7,22 -11,37l-13 55c-2,13 -18,87 -16,98 1,5 -1,0 2,4z"/>
   <path class="fil3" d="M3881 3499c4,-1 1,2 3,-4l10 -68c1,-9 0,-14 1,-25l-6 18c-1,1 -1,1 -1,1l-3 7c1,-10 3,-21 3,-31l1 -22c0,-1 1,-3 0,-4 0,-5 2,0 -1,-3l-6 79 9 -31c0,27 -6,57 -10,83z"/>
   <path class="fil3" d="M3993 3339l4 -14c1,1 1,0 2,4 4,15 3,73 2,87l-14 -3c1,2 0,1 3,2l13 2c4,-42 -3,-102 -3,-104l-1 0c-1,5 -5,14 -6,26z"/>
   <path class="fil3" d="M3742 3451l1 -45c13,21 6,83 4,87 -5,-1 -1,2 -4,-4l-1 6 9 1 4 -32c3,-15 -2,-53 0,-73 -4,5 -3,6 -4,13 1,-1 1,-50 1,-60 2,-21 4,-43 7,-66l5 19c1,-7 -1,-12 -1,-19 0,-15 8,-59 6,-64 2,10 3,58 1,70 -1,2 -3,14 -5,15 -1,0 -1,0 -1,0 0,0 -1,-1 -1,-1 0,0 0,0 -1,0 2,13 -8,78 -11,94 5,-4 4,-1 5,-18 2,-17 3,-31 6,-49l3 -7c0,0 0,-1 0,-1l3 -1c16,13 9,15 15,21 1,-8 -4,-10 -4,-18 -1,-7 1,-14 -1,-21l-2 20c-4,-4 -5,-4 -10,-8 1,-9 4,-16 6,-25 3,-10 4,-19 5,-29 3,-21 3,-44 6,-63 8,28 -11,85 -5,105 2,-14 14,-91 30,-99 -3,13 -8,29 -9,42 -1,9 1,12 -2,21 -10,28 -1,74 -7,112 -3,-6 -2,-13 -3,-19 0,-4 -2,-15 -4,-18 0,5 1,10 2,16 0,6 1,12 1,16 0,10 -2,28 1,35 4,-16 -1,-16 10,-26 1,9 1,18 1,27 -1,12 0,19 -12,22 1,-7 3,-18 1,-23l-11 95 1 0c6,-26 6,-50 8,-63 1,-7 -1,-5 5,-6 3,9 -8,54 -10,68 5,-3 2,3 5,-6l11 -58c2,-14 3,-19 4,-33l-1 -24c0,-8 2,-3 -2,-7l-5 8c4,-40 0,-73 2,-94 1,-9 4,-15 5,-22 2,-9 2,-19 2,-24 2,-13 9,-30 10,-45 -7,3 -6,3 -10,10 -3,5 -5,9 -7,16 -4,10 -9,24 -10,37l-1 0c2,-28 5,-33 3,-64 0,-11 1,-15 -4,-18 -1,16 -1,29 -3,46 -2,17 -4,33 -5,50l-2 0c1,-4 1,-7 1,-10 0,-1 0,-4 0,-4 0,-2 0,-3 0,-5l-2 -36c0,-7 1,-13 -1,-18l-8 73c-4,1 0,-3 -4,-2 -3,25 -7,51 -8,76l-1 53c0,4 1,11 1,16 -1,0 -1,-1 -1,-1l-6 -16c-1,-3 0,-1 -2,-3 0,6 -2,47 0,54 1,6 -3,-1 1,4zm23 46c2,2 1,1 3,1 1,0 3,0 5,0 -8,-4 -4,1 -5,-5 3,-28 4,-58 6,-86 0,-16 2,-58 -4,-75 0,-1 -1,-1 -1,-1 0,0 0,-1 0,-1 -1,10 2,21 2,31l-1 33c0,25 -6,47 -8,72 3,-16 5,-20 7,-38 1,-2 1,-6 1,-7l-5 76zm-13 -1c2,2 0,2 3,0 2,-8 0,-30 0,-30l0 -2c-3,10 -2,22 -3,32z"/>
   <path class="fil3" d="M3341 3132c3,13 2,31 1,44 -1,16 1,30 1,45 2,17 2,37 1,55 0,12 -7,52 -4,59 4,-60 14,-141 13,-199l-4 -58c7,8 13,23 14,39l1 55c-2,48 -3,63 -9,111l-7 55c-1,17 -1,35 -2,52 0,-5 3,-26 4,-34 1,-13 0,-23 2,-36 10,-54 8,-127 27,-178 5,-11 6,-16 14,-23l-1 5c-2,9 -5,19 -7,28 -3,12 0,18 -4,30 -6,21 -4,36 -5,57 2,29 -17,67 -16,91 3,-9 5,-23 7,-30 8,-31 12,-52 23,-85l2 -7c-3,15 -5,36 -8,53 -3,18 -7,35 -10,53 -4,23 -23,84 -22,101l1 3 43 -221c1,-3 2,-4 0,-7 -2,6 -4,11 -4,18 -4,1 -1,-2 -2,2 -1,5 0,1 0,5 -4,2 -2,-1 -6,13 -2,5 -3,8 -4,15l-2 -3c0,0 0,0 -1,0 0,0 0,-1 -1,-1 4,-8 3,-21 3,-29 -1,-15 7,-31 7,-41 0,-27 8,-32 6,-45 5,0 1,1 3,-4 0,-1 0,-5 1,-7 -11,4 -15,18 -18,28 -4,9 -9,24 -10,37l-1 0c1,-12 1,-5 -3,-6 4,-9 4,-39 2,-49 -1,-6 1,-5 -3,-6 4,-8 -1,-44 -19,-46 3,7 4,28 5,37 3,37 2,87 -2,125l-1 0c2,-15 -1,-11 -3,-12 3,-9 1,-15 1,-23l1 -46c-1,-5 -1,-7 -1,-10 0,-4 0,-2 0,-5 -2,-6 0,-3 -3,-5 3,-8 -2,-32 -5,-37l0 24c0,9 -2,4 2,7 -3,6 -2,6 -2,13 0,0 0,5 0,5 1,6 -2,3 3,5 -2,4 -2,2 -2,7 -1,10 -2,2 2,5 -4,9 -11,121 -11,136 0,19 3,41 6,59 2,10 3,18 4,29 0,8 -3,26 1,32 5,-17 -1,-45 -3,-62 -3,-22 -5,-39 -5,-61 -1,-50 7,-75 7,-101 1,-11 0,-22 1,-32l0 -12 -1 -23 0 -16 3 22z"/>
   <path class="fil3" d="M3679 3145c-6,-1 0,-2 -2,2 -3,5 -8,71 -9,79 -4,-5 -2,-10 -5,-21 -2,-7 -3,-14 -10,-17 -1,5 0,15 0,19l1 16c1,6 -2,1 2,5l-1 -26c0,-6 0,-6 2,-8 2,13 9,27 8,44 -1,16 -4,36 -6,52 -3,35 -15,71 -11,105 3,-21 3,-41 6,-63 3,-20 7,-39 9,-61 2,-22 5,-40 9,-62 4,-21 2,-41 7,-64 1,-3 1,-7 2,-10l4 -8c-3,25 -8,52 -9,77 -1,24 2,45 0,70 -5,51 -8,77 -22,127 3,-10 10,-28 10,-36 3,34 -19,112 -20,131 2,-2 1,-1 3,-4 4,-7 10,-55 11,-62l17 3c0,13 -25,50 -26,64 7,-4 17,-32 21,-39 3,-7 6,-13 9,-20 3,-7 9,-15 7,-22 4,0 1,4 5,-5 1,-4 0,-7 0,-11 5,0 1,1 3,-3 0,-1 0,-5 1,-7l-4 10 -5 16c-2,6 -4,11 -8,12 -5,1 -15,-1 -20,-2 0,-3 0,-4 1,-7 2,-2 1,-1 2,-3 2,-1 0,1 3,-2 2,-3 5,-7 7,-11l5 -17c2,0 2,6 10,3 1,-1 8,-5 9,-6l-2 7c4,-2 3,3 5,-13l-15 9c-4,-4 -1,-4 -8,-6 -2,7 -5,14 -4,23 -8,2 -2,4 -10,8 3,-23 5,-48 9,-70l8 -59c1,-12 2,-7 -2,-8 8,-19 1,-60 3,-80 3,-32 7,-59 10,-86 -4,3 -3,2 -7,16 -2,7 -4,12 -3,21z"/>
   <path class="fil3" d="M3624 3306c3,5 -1,43 -2,52 -1,-1 -1,-1 -1,-2 0,0 0,0 0,-1l-2 -14c-2,2 0,26 1,34 1,28 -5,92 -12,117l-1 0c1,3 0,2 1,0 7,3 3,2 5,1 4,-26 10,-54 20,-80 2,12 0,45 -1,61 -1,10 -4,15 1,20 2,-14 4,-99 1,-105 -2,20 -6,27 -10,45 -5,16 -5,30 -11,44 1,-16 4,-47 8,-62 2,-10 11,-53 11,-59 0,0 -1,0 -2,3l-7 32c-2,-32 7,-138 13,-171l2 49c0,0 0,1 0,1 2,-14 0,-29 0,-43l-1 -9c0,-16 2,-12 -2,-15l-11 102zm30 -78c-1,10 -3,15 -4,26 0,9 2,12 1,23 -2,12 -7,35 -12,45 0,1 0,1 -1,1l1 -45c-1,-6 1,-3 -2,-6l-2 63c-1,8 -4,14 -3,22 3,-4 2,-10 6,-17 -1,12 -7,38 -3,48 2,-28 5,-53 12,-80 13,-48 2,-37 8,-69 1,-7 0,-8 0,-8l-1 -3zm-36 107c-2,2 -4,6 -1,4l1 -4zm-1 -4c-4,3 -5,6 0,3l0 -3zm-2 -9c-5,-6 -9,-15 -19,-16 3,8 0,6 5,7 -3,8 0,15 2,23 1,8 1,15 2,22 2,26 0,30 0,41 0,8 -1,3 2,6 0,-17 2,-31 1,-49 -2,-15 -5,-28 -7,-43l0 -1c4,3 6,4 8,8 7,12 2,12 7,10l-1 -8z"/>
   <path class="fil3" d="M3889 3320c0,-3 1,-7 1,-10 0,-5 0,-4 -2,-7 -2,16 -4,27 -6,43l-2 0c2,-16 0,-35 -3,-51 0,-5 -1,-10 -4,-14l-7 59 -5 -25c-1,-5 -1,-8 -3,-12l-3 -9c-1,-2 0,-1 -1,-2 -3,25 -1,46 -2,69 -2,-2 -2,-3 -5,-5 -2,-2 -3,-4 -5,-5 -1,10 9,42 3,59 -1,5 -5,10 -7,17 -6,30 -6,44 8,67 3,5 1,4 6,7 -1,-13 -6,-7 -12,-30 -4,-13 -2,-27 1,-40 8,-29 15,-8 4,-72 12,10 3,16 7,31l3 15c0,1 0,1 0,1l1 3c1,-5 0,-7 0,-12 -4,-24 -2,-68 -1,-91 9,15 10,49 9,68 -2,30 -2,28 0,56 2,19 1,11 -2,19l7 4 -1 17c-2,4 -1,2 -3,4 -3,-2 -3,3 -3,-14l-2 -18c0,-8 -1,-28 -4,-33l8 90c1,-7 -1,-16 -1,-18 1,-5 -1,-3 4,-3 2,8 -8,40 1,43 -5,-6 -1,-14 0,-23 3,-26 3,-46 6,-77 3,-28 7,-76 15,-101zm-38 194l-1 7 15 2c-4,-4 -5,-2 -12,-3 -1,-1 -1,-1 -1,-3 0,0 -1,-2 -1,-3zm23 -222c0,1 -2,-5 0,7 1,2 2,5 2,8 1,6 2,12 2,18 1,13 1,27 0,40l-8 80c-3,9 3,-6 -1,3l-2 2c2,-24 -3,-51 -1,-76 0,-14 4,-73 8,-82z"/>
   <path class="fil3" d="M3495 3482l8 1 7 -92c4,-49 0,-53 0,-86 5,5 4,8 7,11 6,-45 2,-59 4,-94 7,22 2,80 -1,106l-3 -12c-1,6 1,14 1,21l-1 60c0,11 -8,82 -12,85l4 3c7,-22 10,-118 11,-146 1,-23 8,-49 11,-73 2,-13 1,-23 2,-36 2,-11 4,-26 1,-35l-1 18c1,9 -7,58 -4,72 -7,-7 0,-19 -2,-40 -1,-2 -1,-4 -1,-5 0,-1 0,-2 0,-3 -1,-7 -2,-20 -4,-26 -2,-3 -1,-2 -2,-3l-1 24c0,0 0,1 0,1l0 7c-1,13 0,41 -2,57l-3 -16c0,-5 0,-10 -1,-15 0,-8 -1,-25 -5,-29l-2 28c0,0 0,4 0,4 1,6 -2,2 2,5l2 -20 4 47c-6,3 5,1 -3,0l-2 -1c-1,0 -1,0 -2,1 4,17 6,41 -2,59 0,-9 0,-15 0,-24 -3,7 1,17 -3,22 -3,-5 -2,-22 -3,-29 0,-17 -3,-12 6,-24l-1 31c1,-8 4,-56 3,-61 -3,22 0,13 -7,32 -3,-3 -2,-1 -3,-17 -1,-4 -1,-8 -1,-10 0,-6 1,-5 -2,-9l-7 198c0,10 -1,9 3,11 0,1 -6,8 2,1 -5,-2 3,-38 4,-45 1,-8 2,-16 3,-24 3,-18 6,-18 1,-25 -3,27 -6,53 -10,80 -4,-20 1,-161 6,-176 -2,6 2,35 2,47l3 50c1,-3 1,-5 1,-9 0,-1 0,-2 0,-4 0,0 0,0 -1,-1 0,-11 -2,-8 1,-10 4,-3 -3,16 1,25l6 -31c4,13 -6,100 -7,122 -2,1 -1,0 -4,1 0,0 -3,1 -3,1z"/>
   <path class="fil3" d="M3539 3248c1,20 -2,40 -1,60 1,16 -2,42 -4,60 -2,18 -13,109 -18,118l1 0c6,-11 17,-114 19,-134 3,-25 0,-40 7,-65 4,-15 11,-45 23,-51 -3,10 -6,17 -8,27 -2,11 1,15 -3,26 -4,10 -4,18 -4,29 0,4 0,9 0,13 0,10 -1,6 -2,14 4,-4 10,-29 26,-34 -4,11 -8,20 -12,31 -5,13 -6,23 -10,35l-8 47c3,-1 3,2 4,-10 2,-16 6,-28 4,-37 7,0 0,2 3,-3l10 -33c2,-5 4,-11 6,-17 3,-5 7,-13 8,-17 -18,-2 -21,18 -28,22 1,-11 0,-16 2,-26 1,-10 5,-14 5,-25 1,-16 -2,-2 4,-24 2,-7 5,-16 6,-24 -6,3 -7,4 -11,10 -10,15 -11,25 -15,39 -2,5 -1,5 -5,7 3,-7 3,-13 2,-21 0,0 0,-1 0,-1 0,-1 0,-1 0,-1 1,-10 3,-11 -1,-15zm-11 239l4 0c-4,-4 -2,1 -3,-7l3 -28c2,-29 4,-45 9,-74 3,-10 8,-24 8,-33 0,0 0,-1 -2,3 0,1 -1,2 -1,3 -1,3 -1,6 -2,9 -2,5 -3,11 -4,16 -6,28 -12,85 -12,111z"/>
   <path class="fil3" d="M4141 3400c-2,4 -1,0 -1,5 0,4 -1,0 1,3l0 -8c-2,-46 -2,-89 7,-134 4,-22 11,-44 14,-65 2,-21 3,-53 7,-71 0,27 1,40 -4,68 -4,24 -1,47 -5,70 -3,25 -4,44 -5,69 -1,25 -6,46 -9,70 3,-3 4,-10 5,-16l7 -74c0,-7 2,-14 2,-21l4 -38c1,-8 0,-11 0,-17 1,-18 2,-42 6,-59 3,-11 2,-27 2,-37 0,-7 0,-11 0,-18 -1,-13 -1,-12 -4,-15 -1,8 0,10 -1,17 -4,53 -8,78 -20,128 -2,6 -2,12 -3,19 -2,16 -7,37 -7,56 0,11 1,23 1,34l1 30c1,5 -2,1 2,4z"/>
   <path class="fil3" d="M4053 3341l9 -106c3,4 2,12 2,19 1,7 1,15 1,21l-3 80c4,-2 3,-15 4,-20l1 -56c0,-5 3,-1 -2,-4 6,-13 -1,-45 1,-64l-2 2c-4,7 -11,87 -11,95 1,9 -2,18 -2,25 -1,11 -1,5 2,8z"/>
   <path class="fil3" d="M3868 3523l10 -1c3,-7 3,-12 4,-21 -1,1 -1,1 -1,1l-2 5c0,1 0,3 -1,5 0,4 -1,7 -2,11 0,0 -4,-1 -4,-1 -4,0 -2,0 -4,1z"/>
   <path class="fil3" d="M3615 3322l1 8 1 1 0 3 1 1 -1 4 2 2 2 14c0,1 0,1 0,1 0,1 0,1 1,2 1,-9 5,-47 2,-52 -2,1 -1,-1 -3,2 -1,2 -1,2 -2,4 -2,3 -2,7 -4,10z"/>
   <g style="clip-path:url(#id4)">
    <image x="13385" y="414" width="10349" height="3754" xlink:href="Untitled-1_Images\Untitled-1_ImgID3.png"/>
   </g>
   <path class="fil3" d="M15198 3499c-1,-155 -4,-294 -3,-450 1,-48 3,-101 2,-147 -1,7 -10,16 -16,20 6,16 -4,16 -13,12 -7,11 -2,12 -18,35 -24,34 -80,33 -97,21 -3,18 5,33 -7,57 -7,14 -8,6 -6,25 0,9 -2,26 -1,32 2,9 17,17 -1,49 -7,12 -17,166 -19,186 -2,22 -3,44 -4,66 -1,20 -4,45 -4,65 63,0 125,19 187,29zm-228 -970c7,29 29,59 25,90 -2,20 -11,26 -17,38l-15 25c-4,4 -3,5 -6,9 11,4 23,9 33,14 19,10 14,12 18,22l24 44c13,26 42,103 55,110 7,3 42,-6 52,-16 8,-8 1,-14 10,-20 5,3 2,2 5,10 4,-15 9,-31 14,-48 2,-9 4,-16 8,-22 6,-9 9,-6 18,-4 -2,-44 -3,-93 -3,-138 0,-27 -5,-121 -2,-139 8,-5 16,-5 25,-2 8,36 0,260 3,269 6,11 14,7 19,25 3,9 3,13 1,22 -3,11 0,6 1,18 1,10 0,11 1,20 2,14 1,13 -2,23 -4,18 -1,26 -18,28 2,48 2,104 1,151 -3,91 3,205 2,298 -1,25 0,50 0,75 0,21 0,55 2,75 11,6 37,10 50,14 44,14 107,32 147,54 17,9 89,31 71,67 -18,36 -293,60 -327,63 -38,4 -79,5 -117,7 -32,1 -89,3 -118,-7 -4,8 0,5 -6,11 -3,2 -6,4 -10,6 -34,15 -147,7 -188,8 -48,2 -163,-2 -201,-33 -8,-6 -10,-8 -15,-17 -18,-30 9,-53 28,-68 43,-32 115,-69 163,-87 30,-11 61,-19 92,-29 1,-33 -5,-72 -3,-107 2,-63 8,-144 15,-206 7,-63 2,-34 14,-92 -5,-8 -9,-13 -13,-19 -8,-11 -1,-8 -15,-16 -29,-17 -39,-34 -57,-54 -5,-4 -3,-2 -7,-9 -11,-17 -18,-23 -14,-58 7,-51 23,-94 43,-131l24 -43c10,-15 5,-8 6,-31 16,-13 48,-20 69,-24 -17,-9 -29,-17 -41,-36 -10,-16 -6,-13 -12,-15 -17,-7 -33,-19 -35,-45 -1,-21 12,-25 4,-33 -6,-7 -12,-14 -16,-25 -8,-25 -2,-52 9,-72l15 -25c27,-30 47,-45 83,-57 39,-14 73,-15 106,20l14 18c0,0 0,0 0,1 9,11 21,38 12,62 -5,13 -9,17 -16,25 -1,1 -5,4 -8,6z"/>
   <g style="clip-path:url(#id5)">
    <image x="-2707" y="101" width="12126" height="3895" xlink:href="Untitled-1_Images\Untitled-1_ImgID4.png"/>
   </g>
   <path class="fil0" d="M2402 3020c3,12 -2,6 -2,14 0,3 1,3 2,8l5 45c-1,18 4,47 11,64l10 28c1,6 4,8 7,13 2,3 1,6 3,11 2,7 9,13 13,28 1,6 1,12 3,18 2,8 5,7 8,13 4,12 -3,25 -14,30 -5,2 -8,-2 -17,2 -7,3 -13,3 -16,9 11,4 85,8 98,9 18,1 27,-6 26,-24 0,-12 -3,-11 5,-20 19,-21 31,-69 37,-95 2,-10 1,-59 0,-64 -2,-8 -4,-12 -3,-21l7 -4c9,7 2,10 12,15 8,4 9,-1 20,5 13,7 24,14 20,31 -6,23 -1,29 -14,70 -2,7 -5,14 -7,21 -5,20 13,58 26,74 16,22 63,20 87,22 1,-10 -2,-14 -4,-23 -2,-6 -3,-17 -4,-24 -4,-31 2,-30 13,-41 5,-5 5,-12 13,-17 12,-8 7,-4 14,-17 6,-9 18,-31 25,-37 25,7 26,-1 35,9 11,-2 20,-7 25,-1 7,9 5,28 6,37 1,17 2,1 1,23 -1,16 2,5 -1,37 0,10 -3,15 -3,24 -7,-4 0,-2 -7,-5 -8,-3 -13,-3 -21,-3 -6,1 -3,0 -10,-1 -7,7 -8,6 -18,6 -3,12 -3,2 -1,12 2,6 -1,9 2,15 6,13 34,10 39,11 10,3 1,3 13,3 14,0 18,-2 33,2 13,3 17,-2 31,2 34,9 29,1 53,-33 4,-5 6,-5 13,-5l2 3c0,0 2,3 2,3l13 18 -7 8c-13,0 -30,-2 -39,8 6,5 24,6 31,6 13,1 26,1 38,2 55,3 82,8 84,-56 4,-99 -54,-98 -21,-166 10,-19 20,-30 22,-52 2,-19 -8,-37 -6,-57 1,-18 14,-32 12,-52 -2,-14 -16,-32 -22,-45 -30,-56 -74,-78 -114,-120 -11,-11 -24,-28 -37,-36 -19,-14 -96,-32 -121,-28 -38,5 -77,22 -116,19 -51,-3 -56,-39 -103,-55 -68,-23 -97,35 -152,51 -30,8 -15,2 -54,15 -39,14 -96,18 -108,35 -10,14 -6,40 -6,57 0,22 -6,48 2,69 7,19 25,29 25,48 0,20 -13,40 -1,59 27,43 71,5 102,-10z"/>
   <path class="fil0" d="M10130 3101l0 0zm43 -239l5 0c10,2 18,10 29,13 13,3 61,8 79,12 69,12 63,41 87,48 10,3 28,4 40,6 125,19 288,-35 384,56 17,16 24,31 42,46 29,25 67,97 135,134 131,71 219,-67 166,-121 -7,-7 -22,-13 -33,-12 -12,2 -16,18 -25,18 -15,0 -5,-39 34,-36 38,3 59,33 63,66l-1 26c-1,6 -3,13 -5,19 -16,40 -50,74 -93,85 -48,14 -100,0 -141,-27 -19,-11 -35,-24 -51,-39 -7,-6 -40,-43 -43,-44 -2,2 -6,20 -8,25 -3,7 -6,15 -10,22 -33,64 -31,85 -24,152 2,17 4,33 14,47 13,19 5,28 1,50 -3,21 -9,63 -9,85 -1,14 -2,42 -21,42 -10,0 -18,2 -27,-2 -7,-2 -4,-1 -12,1 -5,0 -9,-1 -14,-2 -10,-1 -15,-1 -20,-10 -4,-7 -1,-17 5,-22 6,-5 16,-6 23,-8 8,-3 17,-36 18,-44 8,-51 9,-51 -18,-95 -7,-10 -44,-71 -49,-75 -1,9 -3,16 -3,26 0,10 -3,15 -2,25 2,9 1,17 2,26 1,7 5,16 5,21 3,30 -42,60 -60,135 -2,10 -4,11 -14,13l-24 0c-6,0 -9,-1 -14,-1 -4,-1 -21,4 -30,-8 -5,-5 -8,-11 -3,-18 21,-26 32,10 61,-50 15,-31 27,-49 11,-84 -12,-24 -19,-53 -29,-79 -7,-17 -26,-66 -25,-83l-46 16c-56,17 -113,7 -172,5 -5,9 -8,16 -13,24 -13,19 -26,52 -35,74 -11,24 -23,46 -20,73 3,20 14,28 12,39 -1,9 -4,3 -1,12 7,23 7,24 -2,43 -3,6 2,19 -3,30 -6,13 -14,10 -25,11 -35,1 -18,3 -31,5 -9,1 -5,-3 -14,1 -1,1 -3,1 -5,1l-9 0c-5,-1 -11,-1 -18,-1 -1,0 -2,0 -2,0l-2 0c-4,0 -8,-1 -12,-1 -15,-1 -16,-2 -21,-15 -10,-27 31,-28 37,-31 9,-4 11,-14 13,-23 2,-10 6,-19 8,-28 6,-30 5,-36 9,-66 5,-33 6,-26 -4,-58 -5,-18 -10,-37 -15,-55 -3,-14 -7,-49 -13,-57 -11,-19 -46,-66 -51,-88l0 -1c-1,-7 -4,-5 -5,-10l1 0 -1 -5c-4,-2 -4,-2 -7,-1l-1 0 1 1 2 2c2,4 2,2 2,8l-11 -14c-2,0 1,0 -2,-1 -5,4 -17,19 -18,24 -2,-1 -15,3 -16,3l-1 1c-4,2 2,2 -1,0 -10,-4 -16,0 -23,-6 -1,-1 -3,-3 -4,-4 -7,-9 0,-5 -11,-11 -11,-6 -2,-1 -13,-1l5 -3c-7,-4 -13,3 -21,5 2,-3 2,-1 -1,-2l12 -6c-8,0 -35,12 -29,17 -4,5 -4,3 -5,10 -2,-4 1,-3 -2,-3 -3,5 -1,4 -6,7 1,-6 5,-6 6,-13l2 -1 0 -2 5 -6 0 -1c4,-3 10,-8 15,-9l0 1 2 -1c4,0 16,-3 18,-6l-15 4 0 -2 0 -1 0 -1c-5,0 -8,1 -12,3l-2 0 -2 0 -2 1c-6,2 -9,3 -12,8l-1 1 -2 1 -2 0 0 -1 1 -1 0 -2c4,-3 18,-10 24,-12 2,2 19,-2 23,-2l-1 -3c-12,-2 -10,-2 -22,-1 -1,-2 5,-4 -12,-2 9,-7 24,1 33,-4l-3 -4c-5,-5 -12,-10 -17,-16 -3,-5 -10,-18 -14,-20l2 -3 -3 -1c3,-6 -5,-15 -3,-38 2,-17 7,-23 -9,-33 -20,-13 -11,-16 -18,-27 -7,-11 -11,-16 -11,-29l0 -6c3,-31 31,-24 53,-10 31,19 33,9 66,1 12,-3 24,-5 37,-7 13,-2 27,-1 39,-4 11,-2 20,-10 31,-11zm-166 229l0 0zm114 4l0 0zm-94 -5l1 0c0,0 -1,0 -1,0zm-6 1c2,-4 1,-4 5,-2l-5 2zm106 -2l0 0c0,0 -1,0 0,0zm-12 -1c5,1 11,2 14,6 -5,-1 -11,-2 -14,-6zm1 -2l1 0c0,0 -1,0 -1,0zm-95 -3l-2 1 2 -1zm-5 0l0 0c0,0 0,0 0,0zm-4 1l2 -1 -2 1zm108 1c5,0 4,-1 7,1 -3,2 -4,1 -7,-1zm-99 -2l0 0zm98 -2l8 0c-3,3 -5,2 -8,0zm5 -4l1 1c0,0 -1,-1 -1,-1zm-104 -3c1,-1 6,2 2,1 -1,-1 -4,1 -2,-1zm-15 -2c1,-1 6,2 1,1 0,0 -3,1 -1,-1zm117 2c1,-1 6,2 2,1 0,0 -1,0 -1,0 0,0 -3,1 -1,-1zm0 -2c1,-1 4,2 1,1 0,0 -3,1 -1,-1z"/>
   <path class="fil0" d="M9994 3088l-10 8 0 1 0 3c4,-3 3,-4 7,-7 4,-3 5,-1 9,-4l-2 -2 -2 0 -2 1z"/>
   <path class="fil0" d="M9961 3090l4 -2 0 2c5,-6 2,-4 8,-10l0 -1 0 -3c-2,2 -11,11 -12,14z"/>
   <path class="fil0" d="M9979 3107l2 3 -2 4 3 -2c2,-8 -3,-1 4,-10l-2 -2 -5 7z"/>
   <path class="fil0" d="M9998 3109l2 0 1 -1 1 0 8 -9 -2 0c-4,6 -8,6 -10,10z"/>
   <polygon class="fil0" points="9964,3097 9962,3103 9970,3092 9969,3090 "/>
   <path class="fil0" d="M9971 3089l1 0 1 -1 1 -1 2 -2 4 -5c-4,1 -8,5 -9,9z"/>
   <path class="fil0" d="M10015 3066c-3,-2 -14,-3 -18,-1l18 1z"/>
   <path class="fil0" d="M9979 3078l2 1 9 -5c-4,0 -8,1 -11,4z"/>
   <path class="fil0" d="M10062 3134l0 -16c-2,3 -2,13 0,16z"/>
   <path class="fil0" d="M10004 3088c5,0 3,-1 5,1l3 -1 0 -2 0 -1 -8 3z"/>
   <polygon class="fil0" points="9965,3108 9970,3106 9970,3104 9969,3102 "/>
   <path class="fil0" d="M9973 3076c4,-1 5,-1 7,-5 -4,1 -4,2 -7,5z"/>
   <path class="fil0" d="M9990 3132c-2,3 -2,4 -2,9l2 0 0 -9z"/>
   <path class="fil0" d="M9971 3115l7 -6c-5,1 -6,2 -7,6z"/>
   <path class="fil0" d="M9992 3108c4,-1 3,0 5,-4 -4,1 -3,0 -5,4z"/>
   <path class="fil0" d="M9986 3128c3,-3 2,-2 3,-6 -3,3 -2,2 -3,6z"/>
   <path class="fil0" d="M9991 3127c3,-3 3,-2 3,-6 -3,3 -2,2 -3,6z"/>
   <path class="fil0" d="M9980 3071l8 -3c-4,0 -5,0 -8,3z"/>
   <polygon class="fil0" points="9981,3097 9981,3098 9984,3097 9984,3096 9982,3096 "/>
   <path class="fil0" d="M9983 3136l3 -8c-3,4 -3,3 -3,8z"/>
   <path class="fil0" d="M10020 3066l-5 0c2,3 4,1 5,0z"/>
   <polygon class="fil0" points="9961,3111 9965,3111 9965,3108 "/>
   <path class="fil0" d="M9990 3132c2,-2 1,0 1,-5 -2,3 -1,0 -1,5z"/>
   <path class="fil0" d="M9997 3065c-5,0 -2,0 -5,2 5,0 2,0 5,-2z"/>
   <polygon class="fil0" points="9998,3111 9998,3113 10001,3109 10000,3109 "/>
   <polygon class="fil0" points="9974,3087 9974,3088 9978,3085 9976,3085 "/>
   <polygon class="fil0" points="9973,3098 9975,3098 9977,3097 9977,3096 "/>
   <path class="fil0" d="M10009 3080l7 0c-5,-1 -3,-2 -7,0z"/>
   <polygon class="fil0" points="9994,3121 9997,3116 9994,3117 "/>
   <path class="fil0" d="M9988 3026l-5 0c4,3 3,2 5,0z"/>
   <path class="fil0" d="M9965 3090c-1,1 -2,0 0,4l0 -4z"/>
   <path class="fil0" d="M9983 3136c-1,1 -2,-1 0,4l0 -4z"/>
   <path class="fil0" d="M9975 3030c1,1 4,-2 1,-1 0,0 -3,-1 -1,1z"/>
   <path class="fil0" d="M9979 3029c1,1 4,-2 1,-1 0,0 -3,-1 -1,1z"/>
   <path class="fil0" d="M10087 3124l0 -4c-3,4 -1,2 0,4z"/>
   <path class="fil0" d="M9995 3077l4 0c-4,-3 -2,-1 -4,0z"/>
   <path class="fil0" d="M10004 3081l4 0c-4,-2 -2,-1 -4,0z"/>
   <path class="fil0" d="M10087 3124l0 3c2,-4 1,-2 0,-3z"/>
   <path class="fil0" d="M10130 3115l0 3c2,-4 0,-2 0,-3z"/>
   <polygon class="fil0" points="10004,3088 10000,3087 10000,3089 "/>
   <path class="fil0" d="M10081 3126l1 -4c-1,2 -2,-2 -1,4z"/>
   <path class="fil0" d="M10078 3123c0,3 1,1 1,0 0,0 -1,-3 -1,0z"/>
   <path class="fil0" d="M10131 3121c0,3 1,0 0,0 0,0 0,-3 0,0z"/>
   <path class="fil0" d="M10073 3123c0,3 1,0 0,0 0,0 0,-3 0,0z"/>
   <polygon class="fil0" points="9976,3079 9973,3079 9973,3080 "/>
   <polygon class="fil0" points="10126,3098 10124,3096 10124,3098 "/>
   <polygon class="fil0" points="9977,3100 9977,3098 9975,3098 9975,3100 "/>
   <polygon class="fil0" points="9992,3100 9992,3099 9990,3100 "/>
   <polygon class="fil0" points="10008,3099 10008,3098 10005,3099 "/>
   <polygon class="fil0" points="9979,3100 9977,3100 9977,3101 "/>
   <polygon class="fil0" points="10009,3090 10009,3089 10007,3090 "/>
   <polygon class="fil0" points="9972,3090 9970,3090 9970,3092 "/>
   <polygon class="fil0" points="9981,3098 9979,3098 9979,3100 "/>
   <polygon class="fil0" points="9974,3088 9973,3088 9973,3089 "/>
   <polygon class="fil0" points="9987,3108 9987,3106 9985,3108 "/>
   <polygon class="fil0" points="9971,3106 9970,3106 9970,3107 "/>
   <polygon class="fil0" points="9975,3101 9975,3100 9974,3101 "/>
   <polygon class="fil0" points="9974,3103 9973,3103 9973,3105 "/>
   <polygon class="fil0" points="9975,3102 9974,3102 9974,3103 "/>
   <polygon class="fil0" points="9998,3111 9998,3109 9997,3111 "/>
   <polygon class="fil0" points="9978,3096 9978,3094 9977,3096 "/>
   <polygon class="fil0" points="9971,3105 9971,3103 9970,3104 "/>
   <polygon class="fil0" points="9970,3090 9971,3089 9969,3090 "/>
   <polygon class="fil0" points="10124,3096 10122,3095 10122,3096 "/>
   <polygon class="fil0" points="9973,3105 9971,3105 9971,3106 "/>
   <polygon class="fil0" points="9974,3102 9974,3101 9973,3102 "/>
   <polygon class="fil0" points="9977,3101 9975,3101 9975,3102 "/>
   <polygon class="fil0" points="9973,3103 9973,3102 9971,3103 "/>
   <polygon class="fil0" points="9973,3089 9972,3089 9972,3090 "/>
   <polygon class="fil0" points="10002,3108 10001,3108 10001,3109 "/>
   <polygon class="fil0" points="9970,3116 9968,3116 9969,3117 "/>
   <polygon class="fil0" points="9971,3124 9970,3124 9970,3125 "/>
   <polygon class="fil0" points="10131,3108 10131,3109 10132,3109 "/>
   <polygon class="fil0" points="9959,3094 9958,3094 9958,3095 "/>
   <polygon class="fil0" points="9964,3097 9964,3095 9963,3096 "/>
   <polygon class="fil0" points="10096,3116 10096,3117 10097,3117 "/>
   <polygon class="fil0" points="10131,3108 10131,3107 10130,3108 "/>
   <polygon class="fil0" points="10091,3120 10090,3119 10089,3119 "/>
   <polygon class="fil0" points="9973,3129 9972,3129 9973,3130 "/>
   <polygon class="fil0" points="9957,3113 9956,3113 9956,3114 "/>
   <path class="fil0" d="M10056 3130l0 0c0,0 -1,0 0,0z"/>
   <path class="fil0" d="M10071 3121l1 -1c0,0 -1,0 -1,1z"/>
   <path class="fil0" d="M10059 3119l0 0c0,0 -1,0 0,0z"/>
   <path class="fil0" d="M10088 3130l0 0c0,0 0,0 0,0z"/>
   <path class="fil0" d="M10093 3128l0 -1c0,0 0,1 0,1z"/>
   <path class="fil0" d="M10081 3129l1 -1c0,0 -1,1 -1,1z"/>
   <polygon class="fil0" points="10134,3112 10134,3111 "/>
   <polygon class="fil0" points="10026,3097 10023,3098 "/>
   <polygon class="fil0" points="9970,3107 9969,3108 "/>
   <polygon class="fil0" points="9979,3107 9978,3109 "/>
   <polygon class="fil0" points="9985,3109 9985,3108 "/>
   <polygon class="fil0" points="10009,3097 10008,3098 "/>
   <polygon class="fil0" points="10129,3101 10128,3099 "/>
   <polygon class="fil0" points="9969,3108 9967,3110 "/>
   <polygon class="fil0" points="10128,3099 10126,3098 "/>
   <polygon class="fil0" points="10130,3115 10128,3111 "/>
   <polygon class="fil0" points="9959,3094 9960,3091 "/>
   <polygon class="fil0" points="9967,3110 9966,3111 "/>
   <polygon class="fil0" points="9997,3111 9996,3112 "/>
   <polygon class="fil0" points="9961,3111 9959,3112 "/>
   <polygon class="fil0" points="9966,3111 9965,3111 "/>
   <polygon class="fil0" points="9961,3090 9960,3091 "/>
   <polygon class="fil0" points="10096,3116 10095,3115 "/>
   <polygon class="fil0" points="9959,3112 9957,3113 "/>
   <polygon class="fil0" points="9995,3077 9991,3078 "/>
   <polygon class="fil0" points="9980,3084 9978,3085 "/>
   <polygon class="fil0" points="9982,3083 9980,3084 "/>
   <polygon class="fil0" points="9984,3082 9982,3083 "/>
   <polygon class="fil0" points="10004,3081 10002,3082 "/>
   <polygon class="fil0" points="9979,3114 9977,3115 "/>
   <polygon class="fil0" points="9993,3116 9996,3112 "/>
   <polygon class="fil0" points="9997,3116 9998,3113 "/>
   <polygon class="fil0" points="9971,3115 9970,3116 "/>
   <polygon class="fil0" points="9977,3115 9976,3116 "/>
   <polygon class="fil0" points="9986,3081 9984,3082 "/>
   <polygon class="fil0" points="9989,3079 9986,3081 "/>
   <polygon class="fil0" points="9981,3079 9980,3080 "/>
   <polygon class="fil0" points="9992,3118 9993,3116 "/>
   <polygon class="fil0" points="9991,3078 9989,3079 "/>
   <polygon class="fil0" points="9979,3078 9976,3079 "/>
   <polygon class="fil0" points="9992,3118 9990,3119 "/>
   <polygon class="fil0" points="10092,3123 10091,3120 "/>
   <polygon class="fil0" points="9973,3120 9976,3116 "/>
   <polygon class="fil0" points="9992,3067 9988,3068 "/>
   <polygon class="fil0" points="9962,3036 9959,3036 "/>
   <polygon class="fil0" points="9973,3120 9972,3121 "/>
   <polygon class="fil0" points="9989,3122 9990,3119 "/>
   <polygon class="fil0" points="9963,3035 9962,3036 "/>
   <polygon class="fil0" points="9966,3033 9963,3035 "/>
   <polygon class="fil0" points="10092,3123 10092,3125 "/>
   <polygon class="fil0" points="9979,3122 9977,3123 "/>
   <polygon class="fil0" points="9984,3033 9981,3033 "/>
   <polygon class="fil0" points="9971,3124 9972,3121 "/>
   <polygon class="fil0" points="10127,3108 10126,3106 "/>
   <polygon class="fil0" points="9968,3032 9966,3033 "/>
   <polygon class="fil0" points="9971,3099 9970,3101 "/>
   <polygon class="fil0" points="9987,3032 9984,3033 "/>
   <polygon class="fil0" points="9976,3125 9977,3123 "/>
   <polygon class="fil0" points="10067,3128 10069,3122 "/>
   <polygon class="fil0" points="10005,3099 10002,3100 "/>
   <polygon class="fil0" points="9976,3125 9974,3127 "/>
   <polygon class="fil0" points="9971,3031 9968,3032 "/>
   <polygon class="fil0" points="9973,3098 9971,3099 "/>
   <polygon class="fil0" points="9989,3030 9987,3032 "/>
   <polygon class="fil0" points="9971,3031 9974,3031 "/>
   <polygon class="fil0" points="9973,3129 9974,3127 "/>
   <polygon class="fil0" points="9998,3103 9997,3104 "/>
   <polygon class="fil0" points="10001,3102 9998,3103 "/>
   <polygon class="fil0" points="9986,3102 9990,3100 "/>
   <polygon class="fil0" points="9970,3101 9969,3102 "/>
   <polygon class="fil0" points="10002,3100 10001,3102 "/>
   <polygon class="fil0" points="10128,3111 10127,3108 "/>
   <polygon class="fil0" points="10057,3126 10059,3120 "/>
   <path class="fil1" d="M18867 844l3 -1c6,8 6,13 14,17 3,-10 -1,-7 5,-14 11,6 8,19 16,31 8,-6 2,-1 8,-11 0,0 0,-1 1,-1l3 -4c2,3 1,-5 3,8l20 124c1,1 2,1 2,1l12 3c13,31 3,36 1,61 -3,21 12,43 20,60 7,12 21,46 28,56 5,8 15,9 27,7 12,-2 9,0 23,5 79,30 65,-24 109,-26 12,-1 20,0 29,4 26,12 70,-2 85,16 -41,9 -48,-7 -92,19 -11,6 -28,15 -34,24 -21,30 28,52 -70,39 -57,-7 -89,26 -121,39 -12,4 -46,19 -55,25 -20,15 -31,20 -37,40 -10,36 -26,140 -49,157l-3 -18 -9 -4 4 -22c-1,0 -2,0 -2,0l-8 -3c7,-10 13,-10 22,-17 -3,-2 8,-7 -11,-1 -1,0 -8,4 -9,4 0,-8 -2,-9 9,-13 22,-9 30,10 41,-70 10,-68 22,-34 28,-60l-14 5 -7 -7 -27 9c-1,-14 3,-7 3,-22 -8,4 -15,9 -19,17 -14,-2 -30,-7 -24,-26 37,-3 23,-17 39,-36 7,-8 4,-7 7,-15 11,-8 6,0 11,-11 -9,-10 -27,-6 -38,-27 -9,-18 -11,-43 -11,-62 -1,-24 -5,-5 -8,-24l-7 -53c-4,-26 2,-29 7,-38l-10 -9c-1,-11 -2,-21 -4,-35 3,-9 5,-8 6,-16 0,-9 -3,-8 1,-19 3,-6 5,-7 8,-14 12,-34 4,-13 15,-27 4,-5 2,-6 5,-13 5,-11 5,-7 10,-13 5,-7 0,0 3,-8 5,-11 8,-7 13,-14 6,-7 -3,-2 7,-10 11,6 7,11 20,16l1 -23z"/>
   <path class="fil0" d="M5623 843c11,20 -8,45 -22,57 -17,13 -38,23 -43,28 15,0 17,-3 28,-6l5 7c-7,33 -42,44 -84,44 1,1 2,1 2,1 0,1 1,1 1,2l20 6 0 11c-10,2 -4,2 -14,6 -4,2 -9,2 -17,2 2,8 -1,3 6,6 -1,44 -39,9 -51,62 8,6 12,9 23,13 24,8 75,13 95,24 -2,10 -4,10 -13,14l-30 15c-9,3 -6,0 -14,4 -8,4 -6,10 -20,7l-73 -20c-11,-5 -68,6 -110,-8 -23,-8 -46,-18 -64,-32l-22 -15c-13,-12 -21,-28 -41,-35 -9,-3 -30,-3 -30,-9 0,-25 16,-14 26,-25 6,-7 1,-6 12,-13 11,-7 9,-2 16,-10 -22,-6 -62,-46 -62,-88 0,-31 -2,-27 5,-56 2,-5 3,-10 5,-15 4,-9 4,-3 7,-13 12,1 11,1 11,14 9,-6 4,-7 17,-9 0,12 -1,12 -3,20 10,-7 6,-10 20,-11l0 17c7,-4 3,-3 14,-3 -1,14 -5,9 -6,23 24,-6 23,-12 23,19l16 29c10,28 7,11 19,29 23,34 15,24 38,40 10,7 5,16 40,-18 11,-11 17,-20 27,-33l21 -34c10,-15 16,-21 36,-24 9,-1 15,-3 24,-5 43,-7 68,-17 108,-37 8,-4 11,-5 18,-11 10,-9 14,-11 20,-12l16 0c-1,26 -24,57 -39,68l5 0c2,-1 4,-3 5,-4 14,-9 20,-18 29,-22z"/>
   <g style="clip-path:url(#id6)">
   </g>
   <g style="clip-path:url(#id7)">
    <image id="_119715842258917068molumen_elephant_silhouet.svg.hi.png" x="4289" y="1846" width="2485" height="1840" xlink:href="Untitled-1_Images\Untitled-1_ImgID5.png"/>
   </g>
   <g style="clip-path:url(#id8)">
   </g>
  </g>
 </g>
</svg>
